# Blender v2.79 (sub 0) OBJ File: 'MissingSock.blend'
# www.blender.org
mtllib MissingSock.mtl
o Cube
v 0.990080 -0.053167 0.028502
v -0.368039 -0.053167 0.240299
v 0.990080 0.053167 0.028502
v -0.368039 0.053167 0.240299
v 1.187934 -0.053167 1.104793
v 1.187933 0.053167 1.104793
v 0.025975 -0.053168 1.997021
v -0.568740 -0.053168 0.671877
v 0.025975 0.053166 1.997021
v -0.568740 0.053166 0.671877
v 0.751726 0.053167 1.397450
v 0.751727 -0.053167 1.397450
v 1.253672 -0.053167 0.679067
v 1.253672 0.053167 0.679067
v -0.764716 -0.053168 2.785841
v -1.359432 -0.053168 1.460697
v -0.764717 0.053166 2.785840
v -1.359432 0.053166 1.460696
v -1.224539 -0.053168 2.921083
v -1.738109 -0.053168 1.920519
v -1.224539 0.053166 2.921082
v -1.738109 0.053166 1.920519
v -1.574707 -0.053168 2.863688
v -1.858700 -0.053168 2.332715
v -1.574707 0.053166 2.863688
v -1.858700 0.053166 2.332714
v 0.947506 -0.053167 -2.002019
v -0.349244 -0.053167 -1.977194
v 0.947506 0.053167 -2.002019
v -0.349244 0.053167 -1.977194
v 0.883529 0.170066 -2.002019
v 0.921880 0.170066 0.028502
v -0.301524 0.170066 0.266692
v -0.284593 0.170066 -1.977194
v 1.159325 0.170066 0.656158
v 0.707169 0.170066 1.359268
v 1.100107 0.170066 1.043702
v 0.023529 0.170066 1.888508
v -0.482317 0.170066 0.698270
v -0.771087 0.170066 2.692666
v -1.276933 0.170066 1.436776
v -1.185298 0.170066 2.827908
v -1.618048 0.170066 1.896599
v -1.500732 0.170066 2.770514
v -1.726677 0.170066 2.308794
v 0.948144 -0.074026 -3.037789
v -0.361158 -0.074005 -3.037684
v 0.953697 0.059784 -3.040721
v -0.374970 -0.078441 -1.977412
v -0.366718 0.059920 -3.040534
v 0.982476 0.061961 -2.002691
v 0.902045 0.201013 -2.002366
v -0.384179 0.062118 -1.977484
v -0.303148 0.200991 -1.977344
v 0.973007 -0.078664 -2.002521
v 0.880074 0.194668 -3.038792
v -0.291162 0.194705 -3.038763
vn 0.3182 -0.3078 0.8966
vn 0.6476 -0.7502 -0.1333
vn -0.6362 -0.7580 -0.1435
vn -0.2968 -0.3134 0.9020
vn 0.2929 0.8769 0.3810
vn -0.4213 0.9020 -0.0937
vn -0.3576 0.9023 -0.2407
vn 0.3073 0.8832 0.3542
vn 0.6341 0.1665 0.7551
vn 0.9416 0.2746 -0.1951
vn 0.7532 -0.6519 -0.0876
vn 0.6574 -0.6269 0.4181
vn -0.6255 0.1636 0.7629
vn -0.7496 0.1775 0.6376
vn -0.5620 -0.5899 0.5798
vn 0.9483 0.3021 -0.0968
vn 0.0438 0.3250 0.9447
vn 0.4757 0.2896 0.8306
vn 0.2879 0.8561 0.4291
vn 0.0551 0.8743 0.4822
vn 0.4158 -0.7185 0.5576
vn -0.5453 0.3590 0.7574
vn -0.2633 0.8886 0.3756
vn 0.8025 0.3075 0.5112
vn 0.5772 0.2856 0.7650
vn 0.6489 0.2794 0.7077
vn 0.4681 -0.7178 0.5154
vn -0.5430 -0.7486 -0.3803
vn -0.9363 0.2891 -0.1993
vn -0.7800 0.2741 -0.5625
vn 0.2857 0.4720 0.8340
vn 0.4438 0.8923 -0.0824
vn -0.2664 0.4771 0.8375
vn 0.3851 -0.6556 0.6495
vn -0.5311 -0.6963 -0.4828
vn -0.7257 0.2442 -0.6432
vn 0.0464 -0.6603 0.7495
vn -0.4567 -0.6197 0.6383
vn -0.6604 -0.6646 -0.3495
vn -0.8469 0.3268 -0.4195
vn -0.9250 0.3666 0.1001
vn -0.7716 -0.6310 0.0800
vn -0.4307 0.8651 -0.2571
vn -0.3904 0.8433 -0.3692
vn -0.3971 0.6865 0.6091
vn -0.4327 0.9008 0.0374
vn 0.7564 0.1752 0.6302
vn 0.4110 0.6881 0.5980
vn 0.5037 0.8602 -0.0797
vn 0.4317 0.8628 0.2631
vn 0.5697 -0.5939 0.5680
vn -0.7306 0.1696 -0.6614
vn -0.5585 -0.5974 -0.5755
vn 0.7265 0.1658 -0.6668
vn 0.5548 -0.5981 -0.5782
vn -0.3948 0.6891 -0.6077
vn 0.3952 0.6882 -0.6084
usemtl Material
s 1
f 27//1 1//2 2//3 28//4
f 36//5 33//6 39//7 38//8
f 27//1 29//9 3//10 1//2
f 2//3 13//11 5//12
f 28//4 30//13 53//14 49//15
f 1//2 3//10 14//16 13//11
f 21//17 17//18 40//19 42//20
f 2//3 5//12 12//21
f 25//22 21//17 42//20 44//23
f 5//12 6//24 11//25 12//21
f 17//18 9//26 38//8 40//19
f 12//21 7//27 8//28 2//3
f 4//29 2//3 8//28 10//30
f 9//26 11//25 36//5 38//8
f 3//10 29//9 31//31 32//32
f 13//11 2//3 1//2
f 13//11 14//16 6//24 5//12
f 30//13 4//29 33//6 34//33
f 7//27 9//26 17//18 15//34
f 10//30 8//28 16//35 18//36
f 8//28 7//27 15//34 16//35
f 19//37 21//17 25//22 23//38
f 15//34 17//18 21//17 19//37
f 18//36 16//35 20//39 22//40
f 16//35 15//34 19//37 20//39
f 23//38 25//22 26//41 24//42
f 22//40 20//39 24//42 26//41
f 20//39 19//37 23//38 24//42
f 18//36 22//40 43//43 41//44
f 2//3 4//29 30//13 28//4
f 30//13 34//33 54//45 53//14
f 26//41 25//22 44//23 45//46
f 31//31 29//9 51//47 52//48
f 31//31 34//33 33//6 32//32
f 32//32 33//6 35//49
f 37//50 33//6 36//5
f 38//8 39//7 41//44 40//19
f 35//49 33//6 37//50
f 40//19 41//44 43//43 42//20
f 42//20 43//43 45//46 44//23
f 34//33 31//31 52//48 54//45
f 29//9 27//1 55//51 51//47
f 22//40 26//41 45//46 43//43
f 11//25 6//24 37//50 36//5
f 6//24 14//16 35//49 37//50
f 14//16 3//10 32//32 35//49
f 27//1 28//4 49//15 55//51
f 4//29 10//30 39//7 33//6
f 10//30 18//36 41//44 39//7
f 49//15 53//14 50//52 47//53
f 48//54 46//55 47//53 50//52
f 48//54 50//52 57//56 56//57
f 46//55 48//54 51//47 55//51
f 46//55 55//51 49//15 47//53
f 56//57 57//56 54//45 52//48
f 50//52 53//14 54//45 57//56
f 51//47 48//54 56//57 52//48
f 12//21 11//25 9//26 7//27
