# Blender v2.79 (sub 0) OBJ File: 'Teddy.blend'
# www.blender.org
mtllib Teddy.mtl
o Cylinder_Cylinder.001
v 1.043825 0.000000 -0.941366
v 0.952782 0.645575 0.954270
v 1.570336 0.000000 0.000000
v 1.375224 0.645575 0.000000
v 1.044326 0.000000 1.018867
v 0.922682 0.645575 -0.830524
v 1.221270 -1.143473 0.009039
v 0.914256 1.384564 -0.000000
v 0.908339 -1.143473 -0.696762
v 0.644655 1.384564 -0.650875
v 0.644655 1.384564 0.650874
v 0.908339 -1.143473 0.794217
v 1.029009 -0.588097 1.012970
v 1.581860 -0.588097 -0.063541
v 0.998909 -0.588097 -0.940918
v 0.499404 3.213809 -0.528023
v 0.839625 2.682131 -0.868245
v 1.002875 1.871732 -1.059652
v 0.691910 3.213809 -0.063272
v 1.173056 2.682131 -0.063272
v 1.415589 1.871732 -0.063272
v 0.499404 3.213809 0.401479
v 0.839625 2.682131 0.741700
v 1.002875 1.871732 0.933108
v 2.483958 0.464022 0.975803
v 1.869656 0.746681 -0.079932
v 0.790678 1.134639 -0.368659
v 2.256834 0.044094 1.004319
v 1.672525 0.312322 0.051221
v 0.780992 0.919467 -0.205667
v 1.841914 0.012161 1.240032
v 1.397084 0.279291 0.460820
v 0.760759 0.953262 0.061556
v 2.187736 0.381908 1.318734
v 1.654120 0.400157 1.447228
v 1.318775 0.680621 0.739266
v 0.750212 1.202228 0.165786
v 1.881243 0.820085 1.418712
v 1.515905 1.114981 0.608113
v 0.759898 1.417400 0.002793
v 2.296163 0.852018 1.182999
v 1.791346 1.148010 0.198514
v 0.780131 1.383605 -0.264430
v 1.637986 -0.742171 1.392951
v 1.502950 -0.684018 1.029759
v 1.062272 -0.556680 0.473211
v 1.347645 -1.342072 1.502281
v 1.189275 -1.332134 1.147877
v 0.840470 -1.014966 0.556733
v 0.745142 -1.375363 1.805622
v 0.538349 -1.368100 1.475596
v 0.380196 -1.040398 0.788466
v 1.117401 -0.784707 1.864138
v 0.432980 -0.808751 1.999631
v 0.201100 -0.755950 1.685198
v 0.141725 -0.607543 0.936677
v 0.723321 -0.208849 1.890299
v 0.514775 -0.107835 1.567080
v 0.363527 -0.149256 0.853155
v 1.325825 -0.175559 1.586959
v 1.165700 -0.071869 1.239361
v 0.823800 -0.123824 0.621422
v 0.558545 1.213959 1.250771
v 0.728548 1.718592 1.422060
v 0.202725 1.955410 1.662365
v 0.260164 1.808442 1.604012
v 0.149199 1.651204 1.538482
v 0.890681 2.197795 0.977198
v 0.926059 2.147792 0.812252
v 0.696120 2.013699 1.107671
v 0.650908 1.887440 0.996768
v 0.693715 2.235535 1.070677
v 0.502913 2.238610 1.136908
v 0.377673 2.205512 1.038117
v 0.697474 2.422706 1.006435
v 0.652824 2.465864 0.853600
v 0.281374 2.853340 -0.075365
v 0.870315 3.795248 -0.075365
v 0.240941 2.877432 -0.289266
v 0.835538 3.824139 -0.244510
v 1.082632 2.375908 -0.075365
v 1.630685 3.342181 -0.075365
v 1.123065 2.351816 -0.289266
v 1.672646 3.325346 -0.244510
v 0.682003 2.614624 -0.384978
v 1.321824 3.688416 -0.352773
v 0.682003 2.614624 -0.141785
v 1.309085 3.667036 -0.141785
v 0.514236 3.442104 -0.075365
v 0.465018 3.471431 -0.289266
v 1.538809 2.831609 -0.289266
v 1.489591 2.860936 -0.075365
v 1.001914 3.151520 -0.195085
v 1.001914 3.151520 -0.438278
v 0.429878 -0.588097 -1.121101
v 0.437420 -1.103812 -1.353668
v 0.505448 -0.547035 -1.402183
v 0.281966 -0.934985 -1.651404
v 0.316391 -0.597097 -1.680001
v 0.000000 0.645575 -1.138546
v 0.000000 0.000000 -1.281697
v 0.000000 0.645575 1.217923
v -1.043825 0.000000 -0.941366
v -0.952782 0.645575 0.954270
v -1.570336 0.000000 0.000000
v -1.375224 0.645575 0.000000
v -1.044326 0.000000 1.018867
v -0.922682 0.645575 -0.830524
v 0.000000 0.000000 1.346835
v -1.221270 -1.143473 0.009039
v -0.914256 1.384564 -0.000000
v -0.908339 -1.143473 -0.696762
v -0.644655 1.384564 -0.650875
v 0.000000 1.384564 -0.920476
v 0.000000 -1.143473 -1.021993
v -0.644655 1.384564 0.650874
v -0.908339 -1.143473 0.794217
v 0.000000 1.384564 0.920475
v 0.000000 -1.143473 1.119448
v 0.000000 -0.329999 -1.301284
v 0.000000 -0.588097 1.327257
v -1.029009 -0.588097 1.012970
v -1.581860 -0.588097 -0.063541
v -0.998909 -0.588097 -0.940918
v 0.000000 -1.372050 0.009039
v 0.000000 3.364724 -0.063272
v -0.499404 3.213809 -0.528023
v -0.839625 2.682131 -0.868245
v -1.002875 1.871732 -1.059652
v -0.691910 3.213809 -0.063272
v -1.173056 2.682131 -0.063272
v -1.415589 1.871732 -0.063272
v -0.499404 3.213809 0.401479
v -0.839625 2.682131 0.741700
v -1.002875 1.871732 0.933108
v 0.000000 3.213809 0.593985
v 0.000000 2.682131 1.075131
v 0.000000 1.871732 1.345822
v 0.000000 3.213809 -0.720529
v 0.000000 2.682131 -1.201675
v 0.000000 1.871732 -1.472366
v -2.483958 0.464022 0.975803
v -1.869656 0.746681 -0.079932
v -0.790678 1.134639 -0.368659
v -2.256834 0.044094 1.004319
v -1.672525 0.312322 0.051221
v -0.780992 0.919467 -0.205667
v -1.841914 0.012161 1.240032
v -1.397084 0.279291 0.460820
v -0.760759 0.953262 0.061556
v -2.187736 0.381908 1.318734
v -1.654120 0.400157 1.447228
v -1.318775 0.680621 0.739266
v -0.750212 1.202228 0.165786
v -1.881243 0.820085 1.418712
v -1.515905 1.114981 0.608113
v -0.759898 1.417400 0.002793
v -2.296163 0.852018 1.182999
v -1.791346 1.148010 0.198514
v -0.780131 1.383605 -0.264430
v -1.637986 -0.742171 1.392951
v -1.502950 -0.684018 1.029759
v -1.062272 -0.556680 0.473211
v -1.347645 -1.342072 1.502281
v -1.189275 -1.332134 1.147877
v -0.840470 -1.014966 0.556733
v -0.745142 -1.375363 1.805622
v -0.538349 -1.368100 1.475596
v -0.380196 -1.040398 0.788466
v -1.117401 -0.784707 1.864138
v -0.432980 -0.808751 1.999631
v -0.201100 -0.755950 1.685198
v -0.141725 -0.607543 0.936677
v -0.723321 -0.208849 1.890299
v -0.514775 -0.107835 1.567080
v -0.363527 -0.149256 0.853155
v -1.325825 -0.175559 1.586959
v -1.165700 -0.071869 1.239361
v -0.823800 -0.123824 0.621422
v -0.558545 1.213959 1.250771
v 0.000000 1.110348 1.394401
v 0.000000 1.863956 1.672610
v -0.728548 1.718592 1.422060
v 0.000000 1.696600 1.446314
v 0.000000 1.543412 1.547145
v -0.202725 1.955410 1.662365
v -0.260164 1.808442 1.604012
v -0.149199 1.651204 1.538482
v 0.000000 1.893499 1.804963
v 0.000000 1.720874 1.820090
v 0.000000 1.589293 1.681080
v 0.000000 2.000985 1.718932
v 0.000000 2.000806 1.570197
v 0.000000 1.879495 1.438365
v -0.890681 2.197795 0.977198
v -0.926059 2.147792 0.812252
v -0.696120 2.013699 1.107671
v -0.650908 1.887440 0.996768
v -0.693715 2.235535 1.070677
v -0.502913 2.238610 1.136908
v -0.377673 2.205512 1.038117
v -0.697474 2.422706 1.006435
v -0.652824 2.465864 0.853600
v -0.281374 2.853340 -0.075365
v -0.870315 3.795248 -0.075365
v -0.240941 2.877432 -0.289266
v -0.835538 3.824139 -0.244510
v -1.082632 2.375908 -0.075365
v -1.630685 3.342181 -0.075365
v -1.123065 2.351816 -0.289266
v -1.672646 3.325346 -0.244510
v -0.682003 2.614624 -0.384978
v -1.321824 3.688416 -0.352773
v -0.682003 2.614624 -0.141785
v -1.309085 3.667036 -0.141785
v -0.514236 3.442104 -0.075365
v -0.465018 3.471431 -0.289266
v -1.538809 2.831609 -0.289266
v -1.489591 2.860936 -0.075365
v -1.001914 3.151520 -0.195085
v -1.001914 3.151520 -0.438278
v -0.429878 -0.588097 -1.121101
v 0.000000 -1.230269 -1.450551
v 0.000000 -0.284720 -1.520026
v -0.437420 -1.103812 -1.353668
v -0.505448 -0.547035 -1.402183
v 0.000000 -1.028245 -1.708511
v 0.000000 -0.451383 -1.749464
v -0.281966 -0.934985 -1.651404
v -0.316391 -0.597097 -1.680001
v 0.000000 -0.739814 -1.829340
vn 0.0000 0.0989 -0.9951
vn 0.0000 0.2689 -0.9631
vn 0.6208 0.3218 -0.7148
vn 0.6347 0.1169 -0.7638
vn 0.0000 0.7550 -0.6557
vn 0.5981 -0.2228 -0.7697
vn 0.7801 -0.0456 -0.6239
vn 0.9275 0.3729 -0.0244
vn 0.9930 0.1178 -0.0131
vn 0.9707 -0.2312 -0.0649
vn 0.6178 0.3364 0.7107
vn 0.6477 0.0869 0.7569
vn 0.6268 -0.2180 0.7481
vn 0.0000 0.2953 0.9554
vn 0.0000 0.0704 0.9975
vn 0.0000 -0.2034 0.9791
vn 0.0000 -0.9884 -0.1520
vn 0.7829 -0.6221 0.0019
vn 0.9043 0.4263 -0.0232
vn 0.4456 -0.7440 -0.4978
vn 0.6534 -0.7570 -0.0061
vn 0.4654 -0.7324 0.4969
vn 0.0000 -0.7253 0.6884
vn 0.0000 -0.2989 -0.9543
vn 0.6583 -0.2489 -0.7103
vn 0.9867 -0.1627 -0.0015
vn 0.8556 -0.2793 0.4357
vn 0.0000 -0.8165 0.5773
vn 0.0000 -0.9999 -0.0081
vn 0.0000 -0.2355 -0.9719
vn 0.0000 0.4799 -0.8773
vn 0.6211 0.4755 -0.6229
vn 0.6809 -0.2354 -0.6934
vn 0.0000 0.8312 -0.5560
vn 0.0000 1.0000 0.0000
vn 0.3888 0.8315 -0.3966
vn 0.5538 0.8327 0.0000
vn 0.9741 -0.2259 -0.0068
vn 0.8831 0.4692 0.0000
vn 0.8450 -0.0391 0.5332
vn 0.3888 0.8315 0.3966
vn 0.6211 0.4755 0.6229
vn 0.4438 -0.8433 0.3030
vn 0.0000 -0.8944 0.4472
vn 0.0000 0.8312 0.5560
vn 0.0000 0.4799 0.8773
vn 0.0000 0.7909 0.6118
vn 0.3105 0.1578 -0.9373
vn 0.6003 0.0054 -0.7997
vn 0.0936 -0.7833 -0.6146
vn -0.2328 -0.6501 -0.7233
vn 0.9963 -0.0850 -0.0105
vn 0.5246 -0.2229 0.8216
vn 0.5591 -0.8279 0.0430
vn -0.2127 -0.8499 0.4820
vn -0.5982 -0.8011 0.0194
vn -0.7501 -0.6419 0.1592
vn -0.8246 -0.0052 0.5656
vn -0.6000 0.2067 0.7728
vn -0.5160 -0.1482 0.8437
vn -0.1644 0.8671 0.4702
vn 0.0396 0.9315 0.3614
vn -0.0743 0.5739 0.8155
vn 0.5228 0.8059 -0.2778
vn 0.3863 0.8210 -0.4204
vn 0.6944 0.6094 0.3825
vn 0.7912 0.1039 -0.6027
vn 0.8747 0.0459 -0.4825
vn 0.3814 -0.8303 -0.4064
vn 0.3239 -0.7407 -0.5885
vn 0.9899 -0.0119 0.1414
vn 0.4503 -0.0556 0.8911
vn 0.6298 -0.7354 0.2499
vn -0.0945 -0.7758 0.6239
vn -0.5109 -0.8595 0.0137
vn -0.5753 -0.7818 -0.2404
vn -0.9353 -0.0450 0.3509
vn -0.9963 0.0201 0.0830
vn -0.4525 -0.0931 0.8869
vn -0.4807 0.8291 0.2854
vn -0.5103 0.8580 0.0583
vn -0.0894 0.6225 0.7775
vn 0.4347 0.8917 -0.1260
vn 0.3740 0.8838 -0.2812
vn 0.6272 0.6641 0.4069
vn 0.6363 0.2685 0.7232
vn 0.0000 0.4503 0.8928
vn 0.0000 0.8820 -0.4712
vn 0.0000 0.8856 0.4645
vn 0.7430 0.6420 0.1891
vn 0.0000 -0.9665 -0.2565
vn 0.0000 -0.2429 -0.9700
vn 0.7516 -0.5659 -0.3388
vn 0.0000 0.3411 -0.9400
vn 0.9983 0.0036 -0.0585
vn 0.0000 -0.8486 0.5290
vn 0.0000 0.2599 0.9656
vn 0.0000 -0.4231 0.9060
vn 0.2113 0.9550 0.2079
vn 0.2628 0.8165 0.5141
vn 0.8787 0.1325 0.4586
vn 0.9792 0.0324 0.2002
vn 0.3863 0.2276 0.8938
vn 0.2727 -0.4382 0.8565
vn 0.2327 -0.6875 0.6879
vn -0.3357 0.2488 0.9085
vn -0.6377 0.1709 0.7511
vn -0.4976 0.3278 0.8031
vn -0.0877 0.6630 0.7434
vn -0.2738 0.8784 -0.3918
vn -0.7212 0.4876 -0.4920
vn 0.0212 0.0356 -0.9991
vn 0.4042 0.6783 -0.6136
vn 0.9028 0.1773 -0.3918
vn 0.7721 -0.4022 -0.4920
vn 0.6249 0.2384 0.7434
vn 0.5251 -0.2815 0.8031
vn -0.0035 -0.0059 1.0000
vn 0.3727 0.6255 0.6854
vn -0.7767 0.2808 -0.5638
vn -0.0316 -0.0530 -0.9981
vn 0.3894 -0.3074 0.8682
vn 0.0292 0.0491 0.9984
vn -0.4557 0.1962 0.8682
vn 0.6166 -0.5494 -0.5638
vn 0.5728 -0.3957 -0.7178
vn 0.6318 0.2799 -0.7228
vn 0.0000 -0.9635 -0.2676
vn 0.0000 0.9803 -0.1977
vn 0.0000 -0.6176 -0.7864
vn 0.0000 -0.0622 -0.9980
vn 0.0000 0.6194 -0.7851
vn -0.6347 0.1169 -0.7638
vn -0.6208 0.3218 -0.7148
vn -0.7801 -0.0456 -0.6239
vn -0.5981 -0.2228 -0.7697
vn -0.9930 0.1178 -0.0131
vn -0.9275 0.3729 -0.0244
vn -0.9707 -0.2312 -0.0649
vn -0.6477 0.0869 0.7569
vn -0.6178 0.3364 0.7107
vn -0.6268 -0.2180 0.7481
vn -0.9043 0.4263 -0.0232
vn -0.7829 -0.6221 0.0019
vn -0.4456 -0.7440 -0.4978
vn -0.6534 -0.7570 -0.0061
vn -0.4654 -0.7324 0.4969
vn -0.6583 -0.2489 -0.7103
vn -0.9867 -0.1627 -0.0015
vn -0.8556 -0.2793 0.4357
vn -0.6809 -0.2354 -0.6934
vn -0.6211 0.4755 -0.6229
vn -0.3888 0.8315 -0.3966
vn -0.5538 0.8327 0.0000
vn -0.9741 -0.2259 -0.0068
vn -0.8831 0.4692 0.0000
vn -0.8450 -0.0391 0.5332
vn -0.6211 0.4755 0.6229
vn -0.3888 0.8315 0.3966
vn -0.4438 -0.8433 0.3030
vn -0.3105 0.1578 -0.9373
vn 0.2328 -0.6501 -0.7233
vn -0.0936 -0.7833 -0.6146
vn -0.6003 0.0054 -0.7997
vn -0.9963 -0.0850 -0.0105
vn -0.5591 -0.8279 0.0430
vn -0.5246 -0.2229 0.8216
vn 0.2127 -0.8499 0.4820
vn 0.5982 -0.8011 0.0194
vn 0.7501 -0.6419 0.1592
vn 0.6000 0.2067 0.7728
vn 0.8246 -0.0052 0.5656
vn 0.5160 -0.1482 0.8437
vn -0.0396 0.9315 0.3614
vn 0.1644 0.8671 0.4702
vn 0.0743 0.5739 0.8155
vn -0.3863 0.8210 -0.4204
vn -0.5228 0.8059 -0.2778
vn -0.6944 0.6094 0.3825
vn -0.7912 0.1039 -0.6027
vn -0.3239 -0.7407 -0.5885
vn -0.3814 -0.8303 -0.4064
vn -0.8747 0.0459 -0.4825
vn -0.9899 -0.0119 0.1414
vn -0.6298 -0.7354 0.2499
vn -0.4503 -0.0556 0.8911
vn 0.0945 -0.7758 0.6239
vn 0.5109 -0.8595 0.0137
vn 0.5753 -0.7818 -0.2404
vn 0.9963 0.0201 0.0830
vn 0.9353 -0.0450 0.3509
vn 0.4525 -0.0931 0.8869
vn 0.5103 0.8580 0.0583
vn 0.4807 0.8291 0.2854
vn 0.0894 0.6225 0.7775
vn -0.3740 0.8838 -0.2812
vn -0.4347 0.8917 -0.1260
vn -0.6272 0.6641 0.4069
vn -0.6363 0.2685 0.7232
vn -0.7430 0.6420 0.1891
vn -0.7516 -0.5659 -0.3388
vn -0.9983 0.0036 -0.0585
vn -0.2113 0.9550 0.2079
vn -0.9792 0.0324 0.2002
vn -0.8787 0.1325 0.4586
vn -0.2628 0.8165 0.5141
vn -0.3863 0.2276 0.8938
vn -0.2727 -0.4382 0.8565
vn -0.2327 -0.6875 0.6879
vn 0.6377 0.1709 0.7511
vn 0.3357 0.2488 0.9085
vn 0.4976 0.3278 0.8031
vn 0.7212 0.4876 -0.4920
vn 0.2738 0.8784 -0.3918
vn 0.0877 0.6630 0.7434
vn -0.0212 0.0356 -0.9991
vn -0.7721 -0.4022 -0.4920
vn -0.9028 0.1773 -0.3918
vn -0.4042 0.6783 -0.6136
vn -0.5251 -0.2815 0.8031
vn -0.6249 0.2384 0.7434
vn 0.0035 -0.0059 1.0000
vn -0.3727 0.6255 0.6854
vn 0.7767 0.2808 -0.5638
vn 0.0316 -0.0530 -0.9981
vn -0.3894 -0.3074 0.8682
vn -0.0292 0.0491 0.9984
vn 0.4557 0.1962 0.8682
vn -0.6166 -0.5494 -0.5638
vn -0.6318 0.2799 -0.7228
vn -0.5728 -0.3957 -0.7178
usemtl None
s 1
f 101//1 100//2 6//3 1//4
f 120//5 101//1 1//4 15//6 95//7
f 1//4 6//3 4//8 3//9
f 15//6 1//4 3//9 14//10
f 3//9 4//8 2//11 5//12
f 14//10 3//9 5//12 13//13
f 5//12 2//11 102//14 109//15
f 13//13 5//12 109//15 121//16
f 95//7 115//17 96//18 97//19
f 9//20 15//6 14//10 7//21
f 7//21 14//10 13//13 12//22
f 12//22 13//13 121//16 119//23
f 100//2 114//24 10//25 6//3
f 6//3 10//25 8//26 4//8
f 4//8 8//26 11//27 2//11
f 2//11 11//27 118//28 102//14
f 125//29 115//17 9//20
f 125//29 9//20 7//21
f 125//29 7//21 12//22
f 125//29 12//22 119//23
f 141//30 140//31 17//32 18//33
f 139//34 126//35 16//36
f 114//24 141//30 18//33 10//25
f 140//31 139//34 16//36 17//32
f 16//36 126//35 19//37
f 10//25 18//33 21//38 8//26
f 17//32 16//36 19//37 20//39
f 18//33 17//32 20//39 21//38
f 8//26 21//38 24//40 11//27
f 20//39 19//37 22//41 23//42
f 21//38 20//39 23//42 24//40
f 19//37 126//35 22//41
f 118//28 11//27 63//43 181//44
f 23//42 22//41 136//45 137//46
f 24//40 23//42 137//46 138//47
f 22//41 126//35 136//45
f 27//48 26//49 29//50 30//51
f 25//52 34//53 28//54
f 26//49 25//52 28//54 29//50
f 28//54 34//53 31//55
f 29//50 28//54 31//55 32//56
f 30//51 29//50 32//56 33//57
f 33//57 32//56 36//58 37//59
f 31//55 34//53 35//60
f 32//56 31//55 35//60 36//58
f 37//59 36//58 39//61 40//62
f 35//60 34//53 38//63
f 36//58 35//60 38//63 39//61
f 40//62 39//61 42//64 43//65
f 38//63 34//53 41//66
f 39//61 38//63 41//66 42//64
f 43//65 42//64 26//49 27//48
f 41//66 34//53 25//52
f 42//64 41//66 25//52 26//49
f 46//67 45//68 48//69 49//70
f 44//71 53//72 47//73
f 45//68 44//71 47//73 48//69
f 47//73 53//72 50//74
f 48//69 47//73 50//74 51//75
f 49//70 48//69 51//75 52//76
f 52//76 51//75 55//77 56//78
f 50//74 53//72 54//79
f 51//75 50//74 54//79 55//77
f 56//78 55//77 58//80 59//81
f 54//79 53//72 57//82
f 55//77 54//79 57//82 58//80
f 59//81 58//80 61//83 62//84
f 57//82 53//72 60//85
f 58//80 57//82 60//85 61//83
f 62//84 61//83 45//68 46//67
f 60//85 53//72 44//71
f 61//83 60//85 44//71 45//68
f 63//43 64//86 182//87 181//44
f 11//27 24//40 63//43
f 24//40 138//47 182//87 64//86
f 193//88 192//89 65//90
f 185//91 184//92 67//93
f 194//94 193//88 65//90 66//95
f 184//92 194//94 66//95 67//93
f 185//91 67//93 191//96
f 66//95 65//90 189//97 190//98
f 67//93 66//95 190//98 191//96
f 65//90 192//89 189//97
f 63//43 24//40 64//86
f 76//99 75//100 68//101 69//102
f 75//100 72//103 68//101
f 68//101 72//103 70//104
f 69//102 68//101 70//104 71//105
f 71//105 70//104 73//106 74//107
f 70//104 72//103 73//106
f 74//107 73//106 75//100 76//99
f 73//106 72//103 75//100
f 89//108 78//109 80//110 90//111
f 94//112 86//113 84//114 91//115
f 91//115 84//114 82//116 92//117
f 93//118 88//119 78//109 89//108
f 86//113 80//110 78//109 88//119
f 84//114 86//113 88//119 82//116
f 92//117 82//116 88//119 93//118
f 90//111 80//110 86//113 94//112
f 79//120 90//111 94//112 85//121
f 81//122 92//117 93//118 87//123
f 87//123 93//118 89//108 77//124
f 83//125 91//115 92//117 81//122
f 85//121 94//112 91//115 83//125
f 77//124 89//108 90//111 79//120
f 97//19 96//18 98//126 99//127
f 115//17 95//7 15//6 9//20
f 115//17 223//128 96//18
f 120//5 95//7 97//19 224//129
f 227//130 231//131 98//126
f 96//18 223//128 227//130 98//126
f 224//129 97//19 99//127 228//132
f 101//1 103//133 108//134 100//2
f 120//5 222//135 124//136 103//133 101//1
f 103//133 105//137 106//138 108//134
f 124//136 123//139 105//137 103//133
f 105//137 107//140 104//141 106//138
f 123//139 122//142 107//140 105//137
f 107//140 109//15 102//14 104//141
f 122//142 121//16 109//15 107//140
f 222//135 226//143 225//144 115//17
f 112//145 110//146 123//139 124//136
f 110//146 117//147 122//142 123//139
f 117//147 119//23 121//16 122//142
f 100//2 108//134 113//148 114//24
f 108//134 106//138 111//149 113//148
f 106//138 104//141 116//150 111//149
f 104//141 102//14 118//28 116//150
f 125//29 112//145 115//17
f 125//29 110//146 112//145
f 125//29 117//147 110//146
f 125//29 119//23 117//147
f 141//30 129//151 128//152 140//31
f 139//34 127//153 126//35
f 114//24 113//148 129//151 141//30
f 140//31 128//152 127//153 139//34
f 127//153 130//154 126//35
f 113//148 111//149 132//155 129//151
f 128//152 131//156 130//154 127//153
f 129//151 132//155 131//156 128//152
f 111//149 116//150 135//157 132//155
f 131//156 134//158 133//159 130//154
f 132//155 135//157 134//158 131//156
f 130//154 133//159 126//35
f 118//28 181//44 180//160 116//150
f 134//158 137//46 136//45 133//159
f 135//157 138//47 137//46 134//158
f 133//159 136//45 126//35
f 144//161 147//162 146//163 143//164
f 142//165 145//166 151//167
f 143//164 146//163 145//166 142//165
f 145//166 148//168 151//167
f 146//163 149//169 148//168 145//166
f 147//162 150//170 149//169 146//163
f 150//170 154//171 153//172 149//169
f 148//168 152//173 151//167
f 149//169 153//172 152//173 148//168
f 154//171 157//174 156//175 153//172
f 152//173 155//176 151//167
f 153//172 156//175 155//176 152//173
f 157//174 160//177 159//178 156//175
f 155//176 158//179 151//167
f 156//175 159//178 158//179 155//176
f 160//177 144//161 143//164 159//178
f 158//179 142//165 151//167
f 159//178 143//164 142//165 158//179
f 163//180 166//181 165//182 162//183
f 161//184 164//185 170//186
f 162//183 165//182 164//185 161//184
f 164//185 167//187 170//186
f 165//182 168//188 167//187 164//185
f 166//181 169//189 168//188 165//182
f 169//189 173//190 172//191 168//188
f 167//187 171//192 170//186
f 168//188 172//191 171//192 167//187
f 173//190 176//193 175//194 172//191
f 171//192 174//195 170//186
f 172//191 175//194 174//195 171//192
f 176//193 179//196 178//197 175//194
f 174//195 177//198 170//186
f 175//194 178//197 177//198 174//195
f 179//196 163//180 162//183 178//197
f 177//198 161//184 170//186
f 178//197 162//183 161//184 177//198
f 180//160 181//44 182//87 183//199
f 116//150 180//160 135//157
f 135//157 183//199 182//87 138//47
f 193//88 186//200 192//89
f 185//91 188//201 184//92
f 194//94 187//202 186//200 193//88
f 184//92 188//201 187//202 194//94
f 185//91 191//96 188//201
f 187//202 190//98 189//97 186//200
f 188//201 191//96 190//98 187//202
f 186//200 189//97 192//89
f 180//160 183//199 135//157
f 203//203 196//204 195//205 202//206
f 202//206 195//205 199//207
f 195//205 197//208 199//207
f 196//204 198//209 197//208 195//205
f 198//209 201//210 200//211 197//208
f 197//208 200//211 199//207
f 201//210 203//203 202//206 200//211
f 200//211 202//206 199//207
f 216//212 217//213 207//214 205//215
f 221//216 218//217 211//218 213//219
f 218//217 219//220 209//221 211//218
f 220//222 216//212 205//215 215//223
f 213//219 215//223 205//215 207//214
f 211//218 209//221 215//223 213//219
f 219//220 220//222 215//223 209//221
f 217//213 221//216 213//219 207//214
f 206//224 212//225 221//216 217//213
f 208//226 214//227 220//222 219//220
f 214//227 204//228 216//212 220//222
f 210//229 208//226 219//220 218//217
f 212//225 210//229 218//217 221//216
f 204//228 206//224 217//213 216//212
f 226//143 230//230 229//231 225//144
f 115//17 112//145 124//136 222//135
f 115//17 225//144 223//128
f 120//5 224//129 226//143 222//135
f 227//130 229//231 231//131
f 225//144 229//231 227//130 223//128
f 224//129 228//132 230//230 226//143
f 98//126 231//131 99//127
f 231//131 230//230 228//132
f 231//131 229//231 230//230
f 99//127 231//131 228//132
