# Blender v2.79 (sub 0) OBJ File: 'Dogbed.blend'
# www.blender.org
mtllib Dogbed.mtl
o Cylinder
v -1.962955 -0.001582 3.399940
v -1.695760 0.474051 2.937144
v -3.399939 -0.001582 1.962957
v -2.937143 0.474051 1.695762
v -3.925912 -0.001582 0.000002
v -3.391521 0.474051 0.000002
v -3.399941 -0.001582 -1.962954
v -2.937145 0.474051 -1.695759
v -1.962958 -0.001582 -3.399939
v -1.695763 0.474051 -2.937143
v -1.962955 1.100342 3.399940
v -1.695760 1.009224 2.937144
v -2.937143 1.755064 1.695762
v -3.399939 1.978780 1.962957
v -3.391521 1.755064 0.000002
v -2.937145 1.755064 -1.695759
v -1.695763 1.755064 -2.937143
v -3.925912 1.978780 0.000002
v -3.399941 1.978780 -1.962954
v -1.962958 1.978780 -3.399939
v 0.000000 -0.001582 -3.925912
v 0.000000 0.474051 -3.391521
v 0.000000 -0.001582 3.925912
v 0.000000 0.474051 3.391522
v 1.962955 -0.001582 3.399940
v 1.695760 0.474051 2.937144
v 3.399939 -0.001582 1.962957
v 2.937143 0.474051 1.695762
v 3.925912 -0.001582 0.000002
v 3.391521 0.474051 0.000002
v 3.399941 -0.001582 -1.962954
v 2.937145 0.474051 -1.695759
v 1.962958 -0.001582 -3.399939
v 1.695763 0.474051 -2.937143
v 0.000000 1.755064 -3.391521
v 0.000000 1.978780 -3.925912
v 1.962955 1.100342 3.399940
v 1.695760 1.009224 2.937144
v 2.937143 1.755064 1.695762
v 3.399939 1.978780 1.962957
v 0.000000 0.730902 3.391522
v 3.391521 1.755064 0.000002
v 2.937145 1.755064 -1.695759
v 1.695763 1.755064 -2.937143
v 0.000000 0.765638 3.925912
v 3.925912 1.978780 0.000002
v 3.399941 1.978780 -1.962954
v 1.962958 1.978780 -3.399939
v -1.553083 0.572411 2.690020
v 0.000000 0.572411 3.106167
v -2.690019 0.572411 1.553085
v -3.106167 0.572411 0.000002
v -2.690021 0.572411 -1.553081
v -1.553085 0.572411 -2.690018
v 0.000000 0.572411 -3.106167
v 1.553083 0.572411 2.690020
v 2.690019 0.572411 1.553085
v 3.106167 0.572411 0.000002
v 2.690021 0.572411 -1.553081
v 1.553085 0.572411 -2.690018
v -2.890319 0.596791 1.505365
v -2.890319 1.627100 1.505365
v -3.255772 0.596791 0.141479
v -3.255772 1.627100 0.141479
v -2.890321 0.596791 -1.505362
v -3.255773 0.596791 -0.141475
v -2.890321 1.627100 -1.505362
v -3.255773 1.627100 -0.141475
v -1.750411 0.596791 -2.748842
v -2.748844 0.596791 -1.750407
v -1.750411 1.627100 -2.748842
v -2.748844 1.627100 -1.750407
v -0.141477 1.627100 -3.255772
v -0.141477 0.596791 -3.255772
v -1.505366 0.596791 -2.890319
v -1.505366 1.627100 -2.890319
v 0.141477 1.627100 -3.255772
v 0.141477 0.596791 -3.255772
v 1.505366 0.596791 -2.890319
v 1.505366 1.627100 -2.890319
v 1.750411 0.596791 -2.748842
v 2.748844 0.596791 -1.750407
v 1.750411 1.627100 -2.748842
v 2.748844 1.627100 -1.750407
v 2.890321 0.596791 -1.505362
v 3.255773 0.596791 -0.141475
v 2.890321 1.627100 -1.505362
v 3.255773 1.627100 -0.141475
v 2.890319 0.596791 1.505365
v 2.890319 1.627100 1.505365
v 3.255772 0.596791 0.141479
v 3.255772 1.627100 0.141479
v 1.736218 0.997236 2.763033
v 1.736218 0.554565 2.763033
v 2.763032 0.554565 1.736220
v 2.763032 1.614160 1.736220
v -1.736218 0.997236 2.763033
v -1.736218 0.554565 2.763033
v -2.763032 0.554565 1.736220
v -2.763032 1.614160 1.736220
v -1.524747 0.959361 2.885127
v -1.524747 0.516690 2.885127
v -0.122093 0.516690 3.260967
v -0.122093 0.729145 3.260967
v 0.122093 0.516690 3.260967
v 0.122093 0.729145 3.260967
v 1.524747 0.959361 2.885127
v 1.524747 0.516690 2.885127
vt 0.382437 0.675035
vt 0.340345 0.689588
vt 0.335089 0.590372
vt 0.366375 0.577609
vt 0.408682 0.329063
vt 0.424388 0.488576
vt 0.420508 0.417551
vt 0.407524 0.372835
vt 0.455859 0.627553
vt 0.420877 0.653552
vt 0.399356 0.558746
vt 0.431160 0.535878
vt 0.782773 0.006177
vt 0.869107 0.006177
vt 0.943874 0.049343
vt 0.293729 0.552123
vt 0.290606 0.400243
vt 0.294691 0.439893
vt 0.298552 0.477571
vt 0.293561 0.686715
vt 0.295456 0.601007
vt 0.394212 0.485436
vt 0.424388 0.462903
vt 0.293729 0.526451
vt 0.332171 0.518192
vt 0.362456 0.503800
vt 0.252306 0.532174
vt 0.251572 0.605847
vt 0.450519 0.437047
vt 0.460626 0.507335
vt 0.362456 0.529472
vt 0.332171 0.543864
vt 0.335159 0.468595
vt 0.359023 0.457505
vt 0.250830 0.684062
vt 0.487283 0.599444
vt 0.290294 0.479983
vt 0.287274 0.442327
vt 0.413579 0.367592
vt 0.426421 0.412143
vt 0.351703 0.367809
vt 0.380978 0.350075
vt 0.379337 0.393639
vt 0.356450 0.407362
vt 0.119532 0.675536
vt 0.136819 0.577681
vt 0.168289 0.590331
vt 0.161717 0.689587
vt 0.078583 0.488023
vt 0.098550 0.327447
vt 0.099797 0.371352
vt 0.085491 0.416794
vt 0.043937 0.628769
vt 0.070202 0.535762
vt 0.103251 0.558818
vt 0.080350 0.654558
vt 0.987040 0.124110
vt 0.987040 0.210444
vt 0.217584 0.400309
vt 0.210952 0.552143
vt 0.208629 0.477601
vt 0.213463 0.439984
vt 0.207778 0.600992
vt 0.208222 0.686627
vt 0.109966 0.485236
vt 0.078583 0.462351
vt 0.210952 0.526471
vt 0.172705 0.518114
vt 0.142269 0.503745
vt 0.039086 0.506678
vt 0.050936 0.435909
vt 0.142269 0.529417
vt 0.156814 0.367680
vt 0.158796 0.410990
vt 0.148491 0.457291
vt 0.010780 0.600476
vt 0.220873 0.442270
vt 0.216872 0.479996
vt 0.071540 0.302809
vt 0.093332 0.366035
vt 0.072406 0.346828
vt 0.141665 0.453818
vt 0.151939 0.407297
vt 0.442296 0.442059
vt 0.442358 0.542056
vt 0.425701 0.537633
vt 0.425660 0.446578
vt 0.205682 0.678502
vt 0.119120 0.628321
vt 0.131297 0.616112
vt 0.210130 0.661840
vt 0.069010 0.541729
vt 0.069087 0.441688
vt 0.085746 0.446115
vt 0.085659 0.537232
vt 0.305553 0.305344
vt 0.392086 0.355565
vt 0.379917 0.367777
vt 0.301082 0.321995
vt 0.118965 0.355059
vt 0.205564 0.305136
vt 0.210031 0.321779
vt 0.131177 0.367217
vt 0.305715 0.678502
vt 0.301240 0.661856
vt 0.392389 0.628648
vt 0.380188 0.616475
vt 0.708007 0.285210
vt 0.943874 0.285210
vt 0.869107 0.328377
vt 0.782774 0.328377
vt 0.664840 0.210444
vt 0.664840 0.124110
vt 0.708007 0.049344
vt 0.325039 0.422758
vt 0.348158 0.410712
vt 0.357448 0.457031
vt 0.333584 0.468122
vt 0.349733 0.411185
vt 0.321826 0.383419
vt 0.326614 0.423232
vt 0.354875 0.406888
vt 0.377762 0.393166
vt 0.388852 0.439056
vt 0.363976 0.453173
vt 0.365551 0.453646
vt 0.394212 0.511109
vt 0.390427 0.439530
vt 0.384260 0.388638
vt 0.405949 0.372362
vt 0.418933 0.417077
vt 0.395291 0.434426
vt 0.396866 0.434900
vt 0.385835 0.389112
vt 0.412005 0.367118
vt 0.432032 0.348810
vt 0.445460 0.391702
vt 0.424846 0.411669
vt 0.434322 0.305484
vt 0.433607 0.349283
vt 0.450519 0.462719
vt 0.447035 0.392176
vt 0.091757 0.365562
vt 0.077346 0.410994
vt 0.055895 0.390391
vt 0.070831 0.346354
vt 0.078921 0.411468
vt 0.050936 0.461581
vt 0.057469 0.390865
vt 0.120516 0.387994
vt 0.108135 0.434404
vt 0.083916 0.416320
vt 0.098222 0.370879
vt 0.127169 0.349368
vt 0.122091 0.388468
vt 0.109966 0.510908
vt 0.109710 0.434878
vt 0.150365 0.406823
vt 0.140090 0.453344
vt 0.115080 0.438642
vt 0.127276 0.392479
vt 0.128851 0.392952
vt 0.116655 0.439115
vt 0.180162 0.423025
vt 0.170672 0.468309
vt 0.146916 0.456818
vt 0.157221 0.410517
vt 0.172705 0.543786
vt 0.172247 0.468783
vt 0.186550 0.383633
vt 0.181737 0.423499
vt 0.211889 0.439511
vt 0.207054 0.477127
vt 0.176647 0.471258
vt 0.186951 0.425774
vt 0.188526 0.426247
vt 0.178222 0.471732
vt 0.293116 0.439420
vt 0.318272 0.425715
vt 0.327571 0.471302
vt 0.296977 0.477097
vt 0.319847 0.426189
vt 0.329146 0.471776
vt 0.256663 0.449699
vt 0.285699 0.441853
vt 0.288720 0.479510
vt 0.257431 0.483182
vt 0.252306 0.557846
vt 0.259006 0.483656
vt 0.254088 0.410072
vt 0.258238 0.450172
vt 0.248299 0.449736
vt 0.246526 0.483185
vt 0.215297 0.479523
vt 0.219298 0.441796
vt 0.248101 0.483659
vt 0.249874 0.450210
vn -0.7571 -0.6532 0.0000
vn -0.6557 -0.6532 0.3786
vn -0.4476 0.7930 0.4132
vn -0.6363 0.7714 0.0000
vn 0.3666 0.6799 0.6351
vn 0.3436 0.7264 0.5951
vn 0.8014 0.2513 0.5426
vn 0.7992 -0.2606 0.5416
vn -0.3786 -0.6532 -0.6557
vn -0.6557 -0.6532 -0.3786
vn -0.5511 0.7714 -0.3182
vn -0.3182 0.7714 -0.5511
vn 0.0000 -0.6532 -0.7571
vn 0.3786 -0.6532 -0.6557
vn 0.5060 0.7957 -0.3329
vn 0.3265 0.6868 -0.6493
vn 0.7872 -0.3521 -0.5063
vn 0.8453 0.3324 -0.4182
vn -0.3786 -0.6532 0.6557
vn -0.2299 0.6523 0.7222
vn 0.5951 0.7264 0.3436
vn 0.6480 0.7434 -0.1655
vn 0.6872 0.7264 0.0000
vn 0.0000 0.8697 -0.4934
vn 0.0000 0.6355 0.7721
vn 0.0000 0.7264 0.6872
vn 0.0000 0.7714 -0.6363
vn 0.9654 0.2513 -0.0692
vn 0.8707 0.2513 -0.4227
vn 0.0000 -0.6532 0.7571
vn 0.0858 0.5548 -0.8275
vn 0.0313 -0.4781 -0.8777
vn 0.0695 -0.2606 0.9630
vn 0.0692 0.2513 0.9654
vn 0.7333 0.6799 0.0000
vn 0.6351 0.6799 0.3666
vn 0.9630 -0.2606 0.0695
vn 0.8686 -0.2606 0.4213
vn 0.7571 -0.6532 0.0000
vn 0.6363 0.7714 0.0000
vn 0.4476 0.7930 0.4132
vn 0.6557 -0.6532 0.3786
vn -0.3436 0.7264 0.5951
vn -0.3666 0.6799 0.6351
vn -0.7992 -0.2606 0.5416
vn -0.8014 0.2513 0.5426
vn 0.3182 0.7714 -0.5511
vn 0.5511 0.7714 -0.3182
vn 0.6557 -0.6532 -0.3786
vn -0.3265 0.6868 -0.6493
vn -0.5060 0.7957 -0.3329
vn -0.8453 0.3324 -0.4182
vn -0.7872 -0.3521 -0.5063
vn 0.2299 0.6523 0.7222
vn 0.3786 -0.6532 0.6557
vn -0.5951 0.7264 0.3436
vn -0.6480 0.7434 -0.1655
vn -0.6872 0.7264 0.0000
vn -0.7333 0.6799 0.0000
vn -0.8686 -0.2606 -0.4213
vn -0.8707 0.2513 -0.4227
vn -0.0313 -0.4781 -0.8777
vn -0.0858 0.5548 -0.8275
vn 0.0000 0.6799 0.7333
vn -0.0695 -0.2606 0.9630
vn -0.4213 -0.2606 0.8686
vn -0.8707 0.2513 0.4227
vn -0.8686 -0.2606 0.4213
vn 0.6120 0.6787 -0.4060
vn -0.1660 0.9814 0.0959
vn -0.1917 0.9814 0.0000
vn -0.6120 0.6787 -0.4060
vn 0.1660 0.9814 0.0959
vn 0.0959 0.9814 0.1660
vn -0.6351 0.6799 0.3666
vn 0.1660 0.9814 -0.0959
vn 0.1917 0.9814 0.0000
vn -0.1660 0.9814 -0.0959
vn -0.0959 0.9814 -0.1660
vn 0.0000 0.9814 -0.1917
vn 0.0959 0.9814 -0.1660
vn 0.0000 0.6965 -0.7176
vn 0.0000 0.9814 0.1917
vn -0.0959 0.9814 0.1660
vn 0.9630 -0.2606 -0.0695
vn 0.8686 -0.2606 -0.4213
vn 0.9654 0.2513 0.0692
vn 0.8707 0.2513 0.4227
vn 0.5416 -0.2606 0.7992
vn 0.5426 0.2513 0.8014
vn 0.4213 -0.2606 0.8686
vn 0.4227 0.2513 0.8707
vn -0.0692 0.2513 0.9654
vn -0.4227 0.2513 0.8707
vn -0.5416 -0.2606 0.7992
vn -0.5426 0.2513 0.8014
vn -0.9654 0.2513 0.0692
vn -0.9630 -0.2606 0.0695
vn -0.9630 -0.2606 -0.0695
vn -0.9654 0.2513 -0.0692
vn -0.5993 0.3823 -0.7033
vn -0.5063 -0.3521 -0.7872
vn 0.5063 -0.3521 -0.7872
vn 0.5993 0.3823 -0.7033
vn 0.4117 -0.4781 -0.7758
vn 0.4641 0.5278 -0.7114
vn -0.4117 -0.4781 -0.7758
vn -0.4641 0.5278 -0.7114
usemtl None
s 1
f 5/1/1 3/2/2 14/3/3 18/4/4
f 10/5/5 17/6/6 71/7/7 69/8/8
f 9/9/9 7/10/10 19/11/11 20/12/12
f 9/13/9 21/14/13 33/15/14
f 12/16/15 2/17/16 98/18/17 97/19/18
f 3/2/2 1/20/19 11/21/20 14/3/3
f 16/22/21 17/23/6 20/12/12 19/11/11
f 12/24/15 13/25/22 14/3/3 11/21/20
f 13/25/22 15/26/23 18/4/4 14/3/3
f 41/27/24 12/24/15 11/21/20 45/28/25
f 17/23/6 35/29/26 36/30/27 20/12/12
f 15/26/23 16/22/21 19/11/11 18/4/4
f 15/31/23 13/32/22 62/33/28 64/34/29
f 1/20/19 23/35/30 45/28/25 11/21/20
f 21/36/13 9/9/9 20/12/12 36/30/27
f 2/17/16 12/16/15 101/37/31 102/38/32
f 17/6/6 10/5/5 75/39/33 76/40/34
f 7/10/10 5/1/1 18/4/4 19/11/11
f 6/41/35 8/42/36 65/43/37 66/44/38
f 29/45/39 46/46/40 40/47/41 27/48/42
f 44/49/43 34/50/44 81/51/45 83/52/46
f 33/53/14 48/54/47 47/55/48 31/56/49
f 33/15/14 31/57/49 29/58/39
f 26/59/50 38/60/51 93/61/52 94/62/53
f 27/48/42 40/47/41 37/63/54 25/64/55
f 43/65/56 47/55/48 48/54/47 44/66/43
f 38/67/51 37/63/54 40/47/41 39/68/57
f 39/68/57 40/47/41 46/46/40 42/69/58
f 41/27/24 45/28/25 37/63/54 38/67/51
f 44/66/43 48/54/47 36/70/27 35/71/26
f 42/69/58 46/46/40 47/55/48 43/65/56
f 42/72/58 30/73/59 91/74/60 92/75/61
f 25/64/55 37/63/54 45/28/25 23/35/30
f 21/76/13 36/70/27 48/54/47 33/53/14
f 38/60/51 26/59/50 108/77/62 107/78/63
f 22/79/64 34/50/44 79/80/65 78/81/66
f 31/56/49 47/55/48 46/46/40 29/45/39
f 30/73/59 42/72/58 88/82/67 86/83/68
f 6/84/35 4/85/69 51/86/70 52/87/71
f 26/88/50 28/89/72 57/90/73 56/91/74
f 30/92/59 32/93/75 59/94/76 58/95/77
f 10/96/5 8/97/36 53/98/78 54/99/79
f 34/100/44 22/101/64 55/102/80 60/103/81
f 24/104/82 26/88/50 56/91/74 50/105/83
f 4/85/69 2/106/16 49/107/84 51/86/70
f 28/89/72 30/92/59 58/95/77 57/90/73
f 8/97/36 6/84/35 52/87/71 53/98/78
f 32/93/75 34/100/44 60/103/81 59/94/76
f 22/101/64 10/96/5 54/99/79 55/102/80
f 2/106/16 24/104/82 50/105/83 49/107/84
f 53/98/78 57/90/73 59/94/76
f 29/58/39 1/108/19 9/13/9
f 29/58/39 27/109/42 25/110/55
f 25/110/55 23/111/30 1/108/19
f 1/108/19 3/112/2 5/113/1
f 5/113/1 7/114/10 9/13/9
f 9/13/9 33/15/14 29/58/39
f 29/58/39 25/110/55 1/108/19
f 1/108/19 5/113/1 9/13/9
f 61/115/85 63/116/86 64/117/29 62/118/28
f 6/41/35 15/31/23 64/34/29 63/119/86
f 4/120/69 6/41/35 63/119/86 61/121/85
f 13/32/22 4/120/69 61/121/85 62/33/28
f 66/122/38 65/123/37 67/124/87 68/125/88
f 15/31/23 6/41/35 66/44/38 68/126/88
f 8/42/36 16/127/21 67/128/87 65/43/37
f 16/127/21 15/31/23 68/126/88 67/128/87
f 70/129/89 69/130/8 71/131/7 72/132/90
f 17/6/6 16/127/21 72/133/90 71/7/7
f 8/42/36 10/5/5 69/8/8 70/134/89
f 16/127/21 8/42/36 70/134/89 72/133/90
f 75/135/33 74/136/91 73/137/92 76/138/34
f 10/5/5 22/139/64 74/140/91 75/39/33
f 35/141/26 17/6/6 76/40/34 73/142/92
f 22/139/64 35/141/26 73/142/92 74/140/91
f 79/143/65 80/144/93 77/145/94 78/146/66
f 34/50/44 44/49/43 80/147/93 79/80/65
f 44/49/43 35/148/26 77/149/94 80/147/93
f 35/148/26 22/79/64 78/81/66 77/149/94
f 82/150/95 84/151/96 83/152/46 81/153/45
f 34/50/44 32/154/75 82/155/95 81/51/45
f 43/156/56 44/49/43 83/52/46 84/157/96
f 32/154/75 43/156/56 84/157/96 82/155/95
f 86/158/68 88/159/67 87/160/97 85/161/98
f 32/154/75 30/73/59 86/83/68 85/162/98
f 43/156/56 32/154/75 85/162/98 87/163/97
f 42/72/58 43/156/56 87/163/97 88/82/67
f 89/164/99 90/165/100 92/166/61 91/167/60
f 39/168/57 42/72/58 92/75/61 90/169/100
f 30/73/59 28/170/72 89/171/99 91/74/60
f 28/170/72 39/168/57 90/169/100 89/171/99
f 94/172/53 93/173/52 96/174/101 95/175/102
f 28/170/72 26/59/50 94/62/53 95/176/102
f 39/168/57 28/170/72 95/176/102 96/177/101
f 38/60/51 39/168/57 96/177/101 93/61/52
f 98/178/17 99/179/103 100/180/104 97/181/18
f 2/17/16 4/120/69 99/182/103 98/18/17
f 4/120/69 13/32/22 100/183/104 99/182/103
f 13/32/22 12/16/15 97/19/18 100/183/104
f 103/184/105 102/185/32 101/186/31 104/187/106
f 12/16/15 41/188/24 104/189/106 101/37/31
f 41/188/24 24/190/82 103/191/105 104/189/106
f 24/190/82 2/17/16 102/38/32 103/191/105
f 105/192/107 106/193/108 107/194/63 108/195/62
f 41/188/24 38/60/51 107/78/63 106/196/108
f 24/190/82 41/188/24 106/196/108 105/197/107
f 26/59/50 24/190/82 105/197/107 108/77/62
f 59/94/76 60/103/81 55/102/80
f 55/102/80 54/99/79 59/94/76
f 53/98/78 52/87/71 51/86/70
f 51/86/70 49/107/84 50/105/83
f 50/105/83 56/91/74 57/90/73
f 57/90/73 58/95/77 59/94/76
f 59/94/76 54/99/79 53/98/78
f 53/98/78 51/86/70 50/105/83
f 50/105/83 57/90/73 53/98/78
