# 3ds Max Wavefront OBJ Exporter v0.97b - (c)2007 guruware
# File Created: 23.10.2017 14:04:29

mtllib Door.mtl

#
# object Box001
#

v  -0.2697 8.3102 1.1068
v  -4.4143 8.3102 1.0968
v  -4.4143 0.0175 1.0968
v  -0.2697 0.0175 1.1068
v  -0.2694 8.3102 0.9739
v  -0.2694 0.0175 0.9739
v  -4.4140 0.0175 0.9639
v  -4.4140 8.3102 0.9639
# 8 vertices

vn -0.0024 0.0000 1.0000
vn 0.0024 -0.0000 -1.0000
vn 1.0000 -0.0000 0.0024
vn -0.0000 -1.0000 -0.0000
vn -1.0000 0.0000 -0.0024
vn 0.0000 1.0000 -0.0000
# 6 vertex normals

vt 1.0000 0.0000 0.0000
vt 1.0000 1.0000 0.0000
vt 0.0000 1.0000 0.0000
vt 0.0000 0.0000 0.0000
# 4 texture coords

g Box001
usemtl wire_008008136
s 2
f 1/1/1 2/2/1 3/3/1 4/4/1 
s 4
f 5/4/2 6/1/2 7/2/2 8/3/2 
s 8
f 1/4/3 4/1/3 6/2/3 5/3/3 
s 16
f 4/4/4 3/1/4 7/2/4 6/3/4 
s 32
f 3/4/5 2/1/5 8/2/5 7/3/5 
s 64
f 2/4/6 1/1/6 5/2/6 8/3/6 
# 6 polygons

#
# object Box002
#

v  -3.6972 5.4487 1.1188
v  -4.1884 5.4487 1.1176
v  -4.1884 4.2844 1.1176
v  -3.6972 4.2844 1.1188
v  -3.6968 5.4487 0.9570
v  -3.6968 4.2844 0.9570
v  -4.1880 4.2844 0.9558
v  -4.1880 5.4487 0.9558
# 8 vertices

vn -0.0024 0.0000 1.0000
vn 0.0024 -0.0000 -1.0000
vn 1.0000 -0.0000 0.0024
vn -0.0000 -1.0000 -0.0000
vn -1.0000 0.0000 -0.0024
vn 0.0000 1.0000 -0.0000
# 6 vertex normals

vt 1.0000 0.0000 0.0000
vt 1.0000 1.0000 0.0000
vt 0.0000 1.0000 0.0000
vt 0.0000 0.0000 0.0000
# 4 texture coords

g Box002
usemtl wire_228184153
s 2
f 9/5/7 10/6/7 11/7/7 12/8/7 
s 4
f 13/8/8 14/5/8 15/6/8 16/7/8 
s 8
f 9/8/9 12/5/9 14/6/9 13/7/9 
s 16
f 12/8/10 11/5/10 15/6/10 14/7/10 
s 32
f 11/8/11 10/5/11 16/6/11 15/7/11 
s 64
f 10/8/12 9/5/12 13/6/12 16/7/12 
# 6 polygons

#
# object Cone001
#

v  -3.9448 4.8780 0.9698
v  -4.0896 4.9578 0.9695
v  -4.0896 4.7982 0.9695
v  -3.9448 4.7184 0.9698
v  -3.8001 4.9578 0.9702
v  -3.9448 5.0376 0.9698
v  -3.8001 4.7982 0.9702
v  -4.0793 4.8038 0.9165
v  -3.9447 4.7296 0.9169
v  -4.0793 4.9522 0.9165
v  -3.9447 5.0264 0.9169
v  -3.8101 4.9522 0.9172
v  -3.8101 4.8038 0.9172
v  -4.0691 4.8094 0.8636
v  -3.9446 4.7407 0.8639
v  -4.0691 4.9466 0.8636
v  -3.9446 5.0153 0.8639
v  -3.8201 4.9466 0.8642
v  -3.8201 4.8094 0.8642
v  -4.0588 4.8149 0.8107
v  -3.9445 4.7519 0.8110
v  -4.0588 4.9411 0.8107
v  -3.9445 5.0041 0.8110
v  -3.8301 4.9411 0.8113
v  -3.8301 4.8149 0.8113
v  -4.0486 4.8205 0.7578
v  -3.9443 4.7631 0.7580
v  -4.0486 4.9355 0.7578
v  -3.9443 4.9929 0.7580
v  -3.8401 4.9355 0.7583
v  -3.8401 4.8205 0.7583
v  -4.0383 4.8261 0.7049
v  -3.9442 4.7742 0.7051
v  -4.0383 4.9299 0.7049
v  -3.9442 4.9818 0.7051
v  -3.8501 4.9299 0.7053
v  -3.8501 4.8261 0.7053
v  -3.9442 4.8780 0.7051
# 38 vertices

vn -0.0024 0.0000 1.0000
vn 0.0005 -0.9765 -0.2156
vn -0.8451 -0.4882 -0.2176
vn -0.8451 0.4882 -0.2176
vn 0.0005 0.9765 -0.2156
vn 0.8462 0.4882 -0.2135
vn 0.8462 -0.4882 -0.2135
vn 0.0024 -0.0000 -1.0000
# 8 vertex normals

vt 0.5000 0.0000 0.0000
vt 0.6667 0.0000 0.0000
vt 0.9167 0.0000 1.0000
vt 0.7500 0.0000 1.0000
vt 0.4167 0.0000 1.0000
vt 0.2500 0.0000 1.0000
vt 0.0833 0.0000 1.0000
vt 0.5833 0.0000 1.0000
vt 0.9167 0.2000 0.9301
vt 0.7500 0.2000 0.9301
vt -0.0833 0.0000 1.0000
vt 0.0833 0.2000 0.9301
vt -0.0833 0.2000 0.9301
vt 0.2500 0.2000 0.9301
vt 0.4167 0.2000 0.9301
vt 0.5833 0.2000 0.9301
vt 0.9167 0.4000 0.8601
vt 0.7500 0.4000 0.8601
vt 0.0833 0.4000 0.8601
vt -0.0833 0.4000 0.8601
vt 0.2500 0.4000 0.8601
vt 0.4167 0.4000 0.8601
vt 0.5833 0.4000 0.8601
vt 0.9167 0.6000 0.7902
vt 0.7500 0.6000 0.7902
vt 0.0833 0.6000 0.7902
vt -0.0833 0.6000 0.7902
vt 0.2500 0.6000 0.7902
vt 0.4167 0.6000 0.7902
vt 0.5833 0.6000 0.7902
vt 0.9167 0.8000 0.7202
vt 0.7500 0.8000 0.7202
vt 0.0833 0.8000 0.7202
vt -0.0833 0.8000 0.7202
vt 0.2500 0.8000 0.7202
vt 0.4167 0.8000 0.7202
vt 0.5833 0.8000 0.7202
vt 0.9167 1.0000 0.6503
vt 0.7500 1.0000 0.6503
vt 0.0833 1.0000 0.6503
vt -0.0833 1.0000 0.6503
vt 0.2500 1.0000 0.6503
vt 0.4167 1.0000 0.6503
vt 0.5833 1.0000 0.6503
vt 0.5000 1.0000 0.0000
# 45 texture coords

g Cone001
usemtl wire_027177027
s 1
f 17/9/13 18/10/13 19/11/13 20/12/13 
f 17/9/13 21/13/13 22/14/13 18/15/13 
f 17/9/13 20/12/13 23/16/13 21/13/13 
s 8
f 20/12/14 19/11/15 24/17/15 25/18/14 
f 19/19/15 18/15/16 26/20/16 24/21/15 
f 18/15/16 22/14/17 27/22/17 26/20/16 
f 22/14/17 21/13/18 28/23/18 27/22/17 
f 21/13/18 23/16/19 29/24/19 28/23/18 
f 23/16/19 20/12/14 25/18/14 29/24/19 
f 25/18/14 24/17/15 30/25/15 31/26/14 
f 24/21/15 26/20/16 32/27/16 30/28/15 
f 26/20/16 27/22/17 33/29/17 32/27/16 
f 27/22/17 28/23/18 34/30/18 33/29/17 
f 28/23/18 29/24/19 35/31/19 34/30/18 
f 29/24/19 25/18/14 31/26/14 35/31/19 
f 31/26/14 30/25/15 36/32/15 37/33/14 
f 30/28/15 32/27/16 38/34/16 36/35/15 
f 32/27/16 33/29/17 39/36/17 38/34/16 
f 33/29/17 34/30/18 40/37/18 39/36/17 
f 34/30/18 35/31/19 41/38/19 40/37/18 
f 35/31/19 31/26/14 37/33/14 41/38/19 
f 37/33/14 36/32/15 42/39/15 43/40/14 
f 36/35/15 38/34/16 44/41/16 42/42/15 
f 38/34/16 39/36/17 45/43/17 44/41/16 
f 39/36/17 40/37/18 46/44/18 45/43/17 
f 40/37/18 41/38/19 47/45/19 46/44/18 
f 41/38/19 37/33/14 43/40/14 47/45/19 
f 43/40/14 42/39/15 48/46/15 49/47/14 
f 42/42/15 44/41/16 50/48/16 48/49/15 
f 44/41/16 45/43/17 51/50/17 50/48/16 
f 45/43/17 46/44/18 52/51/18 51/50/17 
f 46/44/18 47/45/19 53/52/19 52/51/18 
f 47/45/19 43/40/14 49/47/14 53/52/19 
s 1
f 54/53/20 53/52/20 49/47/20 48/46/20 
f 54/53/20 48/49/20 50/48/20 51/50/20 
f 54/53/20 51/50/20 52/51/20 53/52/20 
# 36 polygons

#
# object Sphere001
#

v  -3.9434 4.8751 0.5152
v  -4.1752 4.8751 0.5762
v  -4.0594 5.0667 0.5765
v  -3.8278 5.0667 0.5770
v  -3.7120 4.8751 0.5773
v  -3.8278 4.6836 0.5770
v  -4.0594 4.6836 0.5765
v  -4.1755 4.8751 0.6993
v  -4.0597 5.0667 0.6996
v  -3.8281 5.0667 0.7002
v  -3.7123 4.8751 0.7005
v  -3.8281 4.6836 0.7002
v  -4.0597 4.6836 0.6996
v  -3.9440 4.8751 0.7615
# 14 vertices

vn 0.0024 -0.0000 -1.0000
vn -0.8963 -0.0000 -0.4435
vn -0.4476 0.7771 -0.4424
vn 0.4497 0.7771 -0.4402
vn 0.8984 -0.0000 -0.4392
vn 0.4497 -0.7771 -0.4402
vn -0.4476 -0.7771 -0.4424
vn -0.8984 -0.0000 0.4392
vn -0.4497 0.7771 0.4402
vn 0.4476 0.7771 0.4424
vn 0.8963 0.0000 0.4435
vn 0.4476 -0.7771 0.4424
vn -0.4497 -0.7771 0.4402
vn -0.0024 -0.0000 1.0000
# 14 vertex normals

vt 0.0000 1.0000 0.0000
vt 0.0000 0.6667 0.0000
vt 0.1667 0.6667 0.0000
vt 0.1667 1.0000 0.0000
vt 0.3333 0.6667 0.0000
vt 0.3333 1.0000 0.0000
vt 0.5000 0.6667 0.0000
vt 0.5000 1.0000 0.0000
vt 0.6667 0.6667 0.0000
vt 0.6667 1.0000 0.0000
vt 0.8333 0.6667 0.0000
vt 0.8333 1.0000 0.0000
vt 1.0000 0.6667 0.0000
vt 0.0000 0.3333 0.0000
vt 0.1667 0.3333 0.0000
vt 0.3333 0.3333 0.0000
vt 0.5000 0.3333 0.0000
vt 0.6667 0.3333 0.0000
vt 0.8333 0.3333 0.0000
vt 1.0000 0.3333 0.0000
vt 0.0000 0.0000 0.0000
vt 0.1667 0.0000 0.0000
vt 0.3333 0.0000 0.0000
vt 0.5000 0.0000 0.0000
vt 0.6667 0.0000 0.0000
vt 0.8333 0.0000 0.0000
# 26 texture coords

g Sphere001
usemtl wire_228153184
s 1
f 55/54/21 56/55/22 57/56/23 
f 55/57/21 57/56/23 58/58/24 
f 55/59/21 58/58/24 59/60/25 
f 55/61/21 59/60/25 60/62/26 
f 55/63/21 60/62/26 61/64/27 
f 55/65/21 61/64/27 56/66/22 
f 56/55/22 62/67/28 63/68/29 57/56/23 
f 57/56/23 63/68/29 64/69/30 58/58/24 
f 58/58/24 64/69/30 65/70/31 59/60/25 
f 59/60/25 65/70/31 66/71/32 60/62/26 
f 60/62/26 66/71/32 67/72/33 61/64/27 
f 61/64/27 67/72/33 62/73/28 56/66/22 
f 68/74/34 63/68/29 62/67/28 
f 68/75/34 64/69/30 63/68/29 
f 68/76/34 65/70/31 64/69/30 
f 68/77/34 66/71/32 65/70/31 
f 68/78/34 67/72/33 66/71/32 
f 68/79/34 62/73/28 67/72/33 
# 6 polygons - 12 triangles

#
# object Sphere002
#

v  -3.9459 4.8776 1.5583
v  -4.1774 4.8766 1.4962
v  -4.0607 4.6855 1.4964
v  -3.8291 4.6865 1.4970
v  -3.7142 4.8786 1.4973
v  -3.8309 5.0696 1.4970
v  -4.0625 5.0686 1.4964
v  -4.1771 4.8766 1.3730
v  -4.0604 4.6855 1.3733
v  -3.8288 4.6865 1.3739
v  -3.7139 4.8786 1.3741
v  -3.8306 5.0696 1.3739
v  -4.0622 5.0686 1.3733
v  -3.9453 4.8776 1.3120
# 14 vertices

vn -0.0024 -0.0000 1.0000
vn -0.8984 -0.0038 0.4392
vn -0.4461 -0.7790 0.4402
vn 0.4513 -0.7752 0.4424
vn 0.8963 0.0038 0.4435
vn 0.4440 0.7790 0.4424
vn -0.4534 0.7752 0.4402
vn -0.8963 -0.0038 -0.4435
vn -0.4440 -0.7790 -0.4424
vn 0.4534 -0.7752 -0.4402
vn 0.8984 0.0038 -0.4392
vn 0.4461 0.7790 -0.4402
vn -0.4513 0.7752 -0.4424
vn 0.0024 0.0000 -1.0000
# 14 vertex normals

vt 0.0000 1.0000 0.0000
vt 0.0000 0.6667 0.0000
vt 0.1667 0.6667 0.0000
vt 0.1667 1.0000 0.0000
vt 0.3333 0.6667 0.0000
vt 0.3333 1.0000 0.0000
vt 0.5000 0.6667 0.0000
vt 0.5000 1.0000 0.0000
vt 0.6667 0.6667 0.0000
vt 0.6667 1.0000 0.0000
vt 0.8333 0.6667 0.0000
vt 0.8333 1.0000 0.0000
vt 1.0000 0.6667 0.0000
vt 0.0000 0.3333 0.0000
vt 0.1667 0.3333 0.0000
vt 0.3333 0.3333 0.0000
vt 0.5000 0.3333 0.0000
vt 0.6667 0.3333 0.0000
vt 0.8333 0.3333 0.0000
vt 1.0000 0.3333 0.0000
vt 0.0000 0.0000 0.0000
vt 0.1667 0.0000 0.0000
vt 0.3333 0.0000 0.0000
vt 0.5000 0.0000 0.0000
vt 0.6667 0.0000 0.0000
vt 0.8333 0.0000 0.0000
# 26 texture coords

g Sphere002
usemtl wire_228153184
s 1
f 69/80/35 70/81/36 71/82/37 
f 69/83/35 71/82/37 72/84/38 
f 69/85/35 72/84/38 73/86/39 
f 69/87/35 73/86/39 74/88/40 
f 69/89/35 74/88/40 75/90/41 
f 69/91/35 75/90/41 70/92/36 
f 70/81/36 76/93/42 77/94/43 71/82/37 
f 71/82/37 77/94/43 78/95/44 72/84/38 
f 72/84/38 78/95/44 79/96/45 73/86/39 
f 73/86/39 79/96/45 80/97/46 74/88/40 
f 74/88/40 80/97/46 81/98/47 75/90/41 
f 75/90/41 81/98/47 76/99/42 70/92/36 
f 82/100/48 77/94/43 76/93/42 
f 82/101/48 78/95/44 77/94/43 
f 82/102/48 79/96/45 78/95/44 
f 82/103/48 80/97/46 79/96/45 
f 82/104/48 81/98/47 80/97/46 
f 82/105/48 76/99/42 81/98/47 
# 6 polygons - 12 triangles

#
# object Cone002
#

v  -3.9452 4.8761 1.1037
v  -4.0895 4.7957 1.1033
v  -4.0903 4.9553 1.1033
v  -3.9459 5.0357 1.1037
v  -3.8001 4.7969 1.1040
v  -3.9444 4.7165 1.1037
v  -3.8008 4.9565 1.1040
v  -4.0802 4.9498 1.1563
v  -3.9460 5.0245 1.1566
v  -4.0795 4.8013 1.1563
v  -3.9446 4.7277 1.1566
v  -3.8103 4.8025 1.1569
v  -3.8110 4.9509 1.1569
v  -4.0702 4.9442 1.2092
v  -3.9461 5.0134 1.2095
v  -4.0696 4.8069 1.2092
v  -3.9448 4.7388 1.2095
v  -3.8206 4.8080 1.2098
v  -3.8213 4.9453 1.2098
v  -4.0602 4.9387 1.2622
v  -3.9461 5.0022 1.2625
v  -4.0596 4.8126 1.2622
v  -3.9450 4.7500 1.2625
v  -3.8309 4.8136 1.2628
v  -3.8315 4.9397 1.2628
v  -4.0502 4.9331 1.3152
v  -3.9462 4.9911 1.3154
v  -4.0496 4.8182 1.3152
v  -3.9451 4.7612 1.3154
v  -3.8412 4.8191 1.3157
v  -3.8417 4.9340 1.3157
v  -4.0402 4.9276 1.3682
v  -3.9463 4.9799 1.3684
v  -4.0397 4.8238 1.3682
v  -3.9453 4.7723 1.3684
v  -3.8514 4.8246 1.3686
v  -3.8519 4.9284 1.3686
v  -3.9458 4.8761 1.3684
# 38 vertices

vn 0.0024 0.0000 -1.0000
vn -0.0051 0.9765 0.2156
vn -0.8485 0.4846 0.2135
vn -0.8439 -0.4919 0.2135
vn 0.0041 -0.9765 0.2156
vn 0.8474 -0.4846 0.2176
vn 0.8428 0.4919 0.2176
vn -0.0024 -0.0000 1.0000
# 8 vertex normals

vt 0.5000 0.0000 0.0000
vt 0.6667 0.0000 0.0000
vt 0.9167 0.0000 1.0000
vt 0.7500 0.0000 1.0000
vt 0.4167 0.0000 1.0000
vt 0.2500 0.0000 1.0000
vt 0.0833 0.0000 1.0000
vt 0.5833 0.0000 1.0000
vt 0.9167 0.2000 0.9301
vt 0.7500 0.2000 0.9301
vt -0.0833 0.0000 1.0000
vt 0.0833 0.2000 0.9301
vt -0.0833 0.2000 0.9301
vt 0.2500 0.2000 0.9301
vt 0.4167 0.2000 0.9301
vt 0.5833 0.2000 0.9301
vt 0.9167 0.4000 0.8601
vt 0.7500 0.4000 0.8601
vt 0.0833 0.4000 0.8601
vt -0.0833 0.4000 0.8601
vt 0.2500 0.4000 0.8601
vt 0.4167 0.4000 0.8601
vt 0.5833 0.4000 0.8601
vt 0.9167 0.6000 0.7902
vt 0.7500 0.6000 0.7902
vt 0.0833 0.6000 0.7902
vt -0.0833 0.6000 0.7902
vt 0.2500 0.6000 0.7902
vt 0.4167 0.6000 0.7902
vt 0.5833 0.6000 0.7902
vt 0.9167 0.8000 0.7202
vt 0.7500 0.8000 0.7202
vt 0.0833 0.8000 0.7202
vt -0.0833 0.8000 0.7202
vt 0.2500 0.8000 0.7202
vt 0.4167 0.8000 0.7202
vt 0.5833 0.8000 0.7202
vt 0.9167 1.0000 0.6503
vt 0.7500 1.0000 0.6503
vt 0.0833 1.0000 0.6503
vt -0.0833 1.0000 0.6503
vt 0.2500 1.0000 0.6503
vt 0.4167 1.0000 0.6503
vt 0.5833 1.0000 0.6503
vt 0.5000 1.0000 0.0000
# 45 texture coords

g Cone002
usemtl wire_027177027
s 1
f 83/106/49 84/107/49 85/108/49 86/109/49 
f 83/106/49 87/110/49 88/111/49 84/112/49 
f 83/106/49 86/109/49 89/113/49 87/110/49 
s 8
f 86/109/50 85/108/51 90/114/51 91/115/50 
f 85/116/51 84/112/52 92/117/52 90/118/51 
f 84/112/52 88/111/53 93/119/53 92/117/52 
f 88/111/53 87/110/54 94/120/54 93/119/53 
f 87/110/54 89/113/55 95/121/55 94/120/54 
f 89/113/55 86/109/50 91/115/50 95/121/55 
f 91/115/50 90/114/51 96/122/51 97/123/50 
f 90/118/51 92/117/52 98/124/52 96/125/51 
f 92/117/52 93/119/53 99/126/53 98/124/52 
f 93/119/53 94/120/54 100/127/54 99/126/53 
f 94/120/54 95/121/55 101/128/55 100/127/54 
f 95/121/55 91/115/50 97/123/50 101/128/55 
f 97/123/50 96/122/51 102/129/51 103/130/50 
f 96/125/51 98/124/52 104/131/52 102/132/51 
f 98/124/52 99/126/53 105/133/53 104/131/52 
f 99/126/53 100/127/54 106/134/54 105/133/53 
f 100/127/54 101/128/55 107/135/55 106/134/54 
f 101/128/55 97/123/50 103/130/50 107/135/55 
f 103/130/50 102/129/51 108/136/51 109/137/50 
f 102/132/51 104/131/52 110/138/52 108/139/51 
f 104/131/52 105/133/53 111/140/53 110/138/52 
f 105/133/53 106/134/54 112/141/54 111/140/53 
f 106/134/54 107/135/55 113/142/55 112/141/54 
f 107/135/55 103/130/50 109/137/50 113/142/55 
f 109/137/50 108/136/51 114/143/51 115/144/50 
f 108/139/51 110/138/52 116/145/52 114/146/51 
f 110/138/52 111/140/53 117/147/53 116/145/52 
f 111/140/53 112/141/54 118/148/54 117/147/53 
f 112/141/54 113/142/55 119/149/55 118/148/54 
f 113/142/55 109/137/50 115/144/50 119/149/55 
s 1
f 120/150/56 119/149/56 115/144/56 114/143/56 
f 120/150/56 114/146/56 116/145/56 117/147/56 
f 120/150/56 117/147/56 118/148/56 119/149/56 
# 36 polygons

