# Blender v2.79 (sub 0) OBJ File: 'Lamp.blend'
# www.blender.org
mtllib Lamp.mtl
o Cylinder
v 2.618465 0.000000 -1.489579
v 0.757925 0.972551 -0.404040
v 2.618465 0.000000 1.489579
v 0.757925 0.972551 0.404040
v 1.944624 0.541708 -1.114751
v 1.944623 0.541708 1.114751
v 0.662510 1.801016 -0.346713
v 0.662510 1.801016 0.346713
v 0.443204 2.024003 -0.223125
v 0.443204 2.024003 0.223125
v 2.329835 0.000000 -1.320737
v 2.329835 0.000000 1.320737
v 0.961301 0.726191 -0.548172
v 0.961301 0.726191 0.548172
v 2.618465 -0.213910 -1.489579
v 2.618465 -0.213910 1.489579
v 2.329835 -0.213910 -1.320737
v 2.329835 -0.213910 1.320737
v 0.000000 0.000000 -2.979158
v 0.000000 0.975990 -0.834777
v -2.618465 0.000000 -1.489579
v -0.757925 0.972551 -0.404040
v -2.618465 0.000000 1.489579
v -0.757925 0.972551 0.404040
v 0.000000 0.000000 2.979158
v 0.000000 0.975990 0.834777
v 0.000000 0.541708 -2.229501
v -1.944624 0.541708 -1.114751
v -1.944623 0.541708 1.114751
v 0.000000 0.541708 2.229501
v -0.662510 1.801016 -0.346713
v 0.000000 1.809982 -0.714176
v -0.662510 1.801016 0.346713
v 0.000000 1.809982 0.714176
v -0.443204 2.024003 -0.223125
v 0.000000 2.028682 -0.452907
v -0.443204 2.024003 0.223125
v 0.000000 2.028682 0.452907
v 0.000000 0.000000 -2.639190
v -2.329835 0.000000 -1.320737
v -2.329835 0.000000 1.320737
v 0.000000 0.000000 2.639191
v 0.000000 0.726191 -1.096343
v -0.961301 0.726191 -0.548172
v -0.961301 0.726191 0.548172
v 0.000000 0.726191 1.096343
v 0.000000 -0.213910 -2.979158
v -2.618465 -0.213910 -1.489579
v -2.618465 -0.213910 1.489579
v 0.000000 -0.213910 2.979158
v 0.000000 -0.213910 2.639191
v 0.000000 -0.213910 -2.639190
v -2.329835 -0.213910 -1.320737
v -2.329835 -0.213910 1.320737
v -0.000000 1.002231 -0.340388
v 0.300292 1.002231 -0.169845
v 0.300292 1.002231 0.169845
v 0.000000 1.002231 0.340389
v -0.300292 1.002231 -0.169845
v -0.300292 1.002231 0.169845
v 0.300292 0.651649 -0.169845
v 0.300292 0.651649 0.169845
v -0.000000 0.651649 -0.340388
v -0.000000 0.651649 0.340389
v -0.300292 0.651649 -0.169845
v -0.300292 0.651649 0.169845
v 0.507944 0.201898 -0.289650
v 0.507944 0.201898 0.289650
v -0.000000 0.201898 -0.579300
v -0.000000 0.201898 0.579300
v -0.507944 0.201898 -0.289650
v -0.507944 0.201898 0.289650
v 0.673090 -0.423628 -0.383822
v 0.673090 -0.423628 0.383822
v -0.000000 -0.423628 -0.767645
v -0.000000 -0.423628 0.767645
v -0.673090 -0.423628 -0.383822
v -0.673090 -0.423628 0.383822
v 0.433424 -0.992898 -0.247155
v 0.433424 -0.992898 0.247156
v -0.000000 -0.992898 -0.494311
v -0.000000 -0.992898 0.494311
v -0.433424 -0.992898 -0.247155
v -0.433424 -0.992898 0.247156
v 0.090811 2.111517 -0.035343
v 0.000000 2.113550 -0.077839
v 0.090811 2.111517 0.035343
v 0.000000 2.113550 0.077840
v -0.090810 2.111517 -0.035343
v -0.090811 2.111517 0.035343
v 0.091037 11.330463 -0.034975
v 0.000002 11.332497 -0.077839
v 0.091037 11.330463 0.034975
v 0.000002 11.332497 0.077840
v -0.091032 11.330463 -0.034975
v -0.091032 11.330463 0.034975
vt 0.054055 0.345680
vt 0.109961 0.382239
vt 0.106724 0.419740
vt 0.048918 0.437222
vt 0.126032 0.452526
vt 0.093004 0.499768
vt 0.163774 0.462650
vt 0.163710 0.522276
vt 0.137043 0.411467
vt 0.145296 0.428249
vt 0.298248 0.203237
vt 0.247457 0.100451
vt 0.254629 0.096939
vt 0.307249 0.202204
vt 0.074586 0.525319
vt 0.163665 0.551081
vt 0.015995 0.447847
vt 0.017367 0.328057
vt 0.146313 0.410208
vt 0.151512 0.421103
vt 0.142514 0.387563
vt 0.163782 0.433226
vt 0.225079 0.208570
vt 0.210512 0.255275
vt 0.182139 0.229079
vt 0.186775 0.212908
vt 0.163787 0.424929
vt 0.152188 0.395239
vt 0.264546 0.301809
vt 0.165364 0.341679
vt 0.166067 0.274659
vt 0.272229 0.308083
vt 0.165253 0.353064
vt 0.070323 0.531906
vt 0.007636 0.450664
vt 0.912427 0.938060
vt 0.959806 0.938060
vt 0.959806 0.986158
vt 0.912427 0.986158
vt 0.199866 0.164565
vt 0.320639 0.201352
vt 0.280618 0.315941
vt 0.262840 0.084764
vt 0.165115 0.366924
vt 0.007430 0.328012
vt 0.163654 0.558034
vt 0.274105 0.345555
vt 0.278931 0.437419
vt 0.220999 0.419712
vt 0.217854 0.382006
vt 0.234547 0.499967
vt 0.201571 0.452582
vt 0.182274 0.428267
vt 0.190540 0.411386
vt 0.035223 0.201010
vt 0.026279 0.199819
vt 0.080625 0.096174
vt 0.087688 0.099804
vt 0.252909 0.525611
vt 0.311900 0.448183
vt 0.310967 0.328020
vt 0.176034 0.421129
vt 0.181197 0.410141
vt 0.185067 0.387235
vt 0.166612 0.236622
vt 0.175275 0.394946
vt 0.067077 0.299866
vt 0.121858 0.254109
vt 0.059298 0.305984
vt 0.320271 0.451035
vt 0.257156 0.532222
vt 0.107795 0.207539
vt 0.145507 0.212714
vt 0.151292 0.228616
vt 0.133689 0.164516
vt 0.012959 0.198724
vt 0.050783 0.313663
vt 0.072696 0.083907
vt 0.320935 0.328012
vt 0.160705 0.411728
vt 0.163827 0.413078
vt 0.178331 0.198055
vt 0.154224 0.198202
vt 0.466562 0.402418
vt 0.498135 0.408317
vt 0.497395 0.448511
vt 0.458445 0.445016
vt 0.865824 0.938060
vt 0.865824 0.986158
vt 0.724462 0.938060
vt 0.771066 0.938060
vt 0.771066 0.986158
vt 0.724462 0.986158
vt 0.818445 0.938060
vt 0.818445 0.986158
vt 0.677083 0.938060
vt 0.677083 0.986158
vt 0.373759 0.412286
vt 0.417699 0.434999
vt 0.406989 0.478967
vt 0.342527 0.466295
vt 0.435117 0.395248
vt 0.529416 0.404040
vt 0.535852 0.445922
vt 0.560348 0.394053
vt 0.590178 0.378358
vt 0.622886 0.415789
vt 0.577233 0.436560
vt 0.407443 0.378358
vt 0.453616 0.486912
vt 0.450561 0.536984
vt 0.400873 0.536173
vt 0.587295 0.482575
vt 0.541188 0.486460
vt 0.497198 0.488213
vt 0.650505 0.471939
vt 0.427648 0.599766
vt 0.467377 0.530151
vt 0.546786 0.530179
vt 0.586467 0.599820
vt 0.546738 0.669435
vt 0.467329 0.669407
vt 0.543720 0.539910
vt 0.496394 0.534796
vt 0.639023 0.531359
vt 0.591222 0.532564
vt 0.349813 0.530858
vt 0.944424 0.919853
vt 0.928867 0.919574
vt 0.928867 0.028001
vt 0.944424 0.028280
vt 0.166955 0.411755
vt 0.167752 0.409458
vt 0.161166 0.406283
vt 0.159495 0.409597
vt 0.166082 0.406083
vt 0.786628 0.037234
vt 0.786628 0.017552
vt 0.812249 0.005491
vt 0.837870 0.017552
vt 0.837870 0.037234
vt 0.812249 0.049295
vt 0.975541 0.919691
vt 0.959983 0.920006
vt 0.959983 0.028433
vt 0.975541 0.028119
vt 0.913309 0.919888
vt 0.897750 0.919736
vt 0.897750 0.028162
vt 0.913309 0.028315
vt 0.882192 0.919456
vt 0.882192 0.027883
vn 0.0000 0.8741 -0.4856
vn 0.0000 0.7444 -0.6677
vn 0.5759 0.7463 -0.3336
vn 0.4149 0.8762 -0.2449
vn 0.5759 0.7463 0.3336
vn 0.4149 0.8762 0.2449
vn 0.0000 0.7444 0.6677
vn 0.0000 0.8741 0.4856
vn 0.7790 0.4328 -0.4535
vn 0.7790 0.4328 0.4535
vn -0.7618 -0.4721 0.4435
vn 0.0000 -0.4714 0.8819
vn 0.0000 -0.8364 0.5482
vn -0.4690 -0.8397 0.2735
vn 0.7894 0.4088 0.4580
vn 0.0000 0.4066 0.9136
vn 0.7894 0.4088 -0.4580
vn 0.0000 0.4066 -0.9136
vn 0.4406 0.8592 -0.2599
vn 0.4406 0.8592 0.2599
vn 0.0000 0.4372 -0.8993
vn 0.0000 0.4372 0.8993
vn -0.3385 -0.9197 0.1990
vn -0.3385 -0.9197 -0.1990
vn 0.2867 -0.9435 0.1657
vn 0.2867 -0.9435 -0.1657
vn 0.0000 0.8621 0.5067
vn 0.0000 0.8621 -0.5067
vn -0.7618 -0.4721 -0.4435
vn 0.0000 -0.4714 -0.8819
vn 0.0000 -0.9179 -0.3968
vn -0.4690 -0.8397 -0.2735
vn 0.0000 -0.8364 -0.5482
vn 0.6853 -0.6095 0.3985
vn 0.6853 -0.6095 -0.3985
vn -0.2867 -0.9435 -0.1657
vn 0.0000 -0.9420 -0.3356
vn 0.0000 0.2612 -0.9652
vn -0.8337 0.2632 -0.4853
vn 0.0000 -0.9179 0.3968
vn 0.0000 -0.6109 -0.7917
vn 0.0000 -0.6109 0.7917
vn -0.4149 0.8762 -0.2449
vn -0.5759 0.7463 -0.3336
vn -0.4149 0.8762 0.2449
vn -0.5759 0.7463 0.3336
vn -0.7790 0.4328 0.4535
vn -0.7790 0.4328 -0.4535
vn 0.7618 -0.4721 0.4435
vn 0.4690 -0.8397 0.2735
vn -0.7894 0.4088 0.4580
vn -0.7894 0.4088 -0.4580
vn -0.4406 0.8592 0.2599
vn -0.4406 0.8592 -0.2599
vn 0.0000 -0.9420 0.3356
vn 0.7618 -0.4721 -0.4435
vn 0.3385 -0.9197 -0.1990
vn 0.4690 -0.8397 -0.2735
vn -0.6853 -0.6095 -0.3985
vn -0.6853 -0.6095 0.3985
vn 0.3385 -0.9197 0.1990
vn -0.2867 -0.9435 0.1657
vn 0.5516 0.7584 0.3472
vn 0.0000 0.7166 0.6974
vn 0.8337 0.2632 0.4853
vn 0.0000 0.2612 0.9652
vn 0.0000 0.3697 0.9291
vn 0.8024 0.3719 0.4666
vn -0.8337 0.2632 0.4853
vn 0.8337 0.2632 -0.4853
vn 0.0000 0.3697 -0.9291
vn 0.8024 0.3719 -0.4666
vn 0.8629 -0.0703 -0.5004
vn 0.0000 -0.0699 -0.9975
vn -0.8024 0.3719 0.4666
vn -0.8024 0.3719 -0.4666
vn 0.8629 -0.0703 0.5004
vn 0.5488 -0.7723 0.3199
vn 0.5488 -0.7723 -0.3199
vn -0.8629 -0.0703 -0.5004
vn -0.8629 -0.0703 0.5004
vn 0.0000 -0.0699 0.9975
vn 0.0000 -0.7721 0.6355
vn -0.5488 -0.7723 0.3199
vn -0.5488 -0.7723 -0.3199
vn 0.0000 -0.7721 -0.6355
vn -0.5516 0.7584 0.3472
vn 0.0000 0.6272 0.7788
vn -0.6724 0.6017 0.4310
vn -0.5516 0.7584 -0.3472
vn 0.0000 0.7166 -0.6974
vn 0.5516 0.7584 -0.3472
vn -0.6724 0.6017 -0.4310
vn 0.6724 0.6017 0.4310
vn 0.6724 0.6017 -0.4310
vn 0.0000 0.6272 -0.7788
usemtl None
s 1
f 27/1/1 20/2/2 2/3/3 5/4/4
f 5/4/4 2/3/3 4/5/5 6/6/6
f 6/6/6 4/5/5 26/7/7 30/8/8
f 4/5/5 2/3/3 7/9/9 8/10/10
f 11/11/11 39/12/12 52/13/13 17/14/14
f 3/15/15 6/6/6 30/8/8 25/16/16
f 1/17/17 5/4/4 6/6/6 3/15/15
f 19/18/18 27/1/1 5/4/4 1/17/17
f 8/10/10 7/9/9 9/19/19 10/20/20
f 2/3/3 20/2/2 32/21/21 7/9/9
f 26/7/7 4/5/5 8/10/10 34/22/22
f 13/23/23 14/24/24 57/25/25 56/26/26
f 34/22/22 8/10/10 10/20/20 38/27/27
f 7/9/9 32/21/21 36/28/28 9/19/19
f 12/29/29 42/30/30 46/31/31 14/24/24
f 42/30/30 12/29/29 18/32/32 51/33/33
f 1/17/17 3/15/15 16/34/34 15/35/35
f 59/36/36 55/37/37 63/38/38 65/39/39
f 39/12/12 11/11/11 13/23/23 43/40/40
f 11/11/11 12/29/29 14/24/24 13/23/23
f 15/41/35 16/42/34 18/32/32 17/14/14
f 47/43/41 15/41/35 17/14/14 52/13/13
f 16/42/34 50/44/42 51/33/33 18/32/32
f 19/18/18 1/17/17 15/35/35 47/45/41
f 3/15/15 25/16/16 50/46/42 16/34/34
f 12/29/29 11/11/11 17/14/14 18/32/32
f 27/47/1 28/48/43 22/49/44 20/50/2
f 28/48/43 29/51/45 24/52/46 22/49/44
f 29/51/45 30/8/8 26/7/7 24/52/46
f 24/52/46 33/53/47 31/54/48 22/49/44
f 40/55/49 53/56/50 52/57/13 39/58/12
f 23/59/51 25/16/16 30/8/8 29/51/45
f 21/60/52 23/59/51 29/51/45 28/48/43
f 19/61/18 21/60/52 28/48/43 27/47/1
f 33/53/47 37/62/53 35/63/54 31/54/48
f 22/49/44 31/54/48 32/64/21 20/50/2
f 26/7/7 34/22/22 33/53/47 24/52/46
f 14/24/24 46/31/31 58/65/55 57/25/25
f 34/22/22 38/27/27 37/62/53 33/53/47
f 31/54/48 35/63/54 36/66/28 32/64/21
f 41/67/56 45/68/57 46/31/31 42/30/30
f 42/30/30 51/33/33 54/69/58 41/67/56
f 21/60/52 48/70/59 49/71/60 23/59/51
f 45/68/57 44/72/61 59/73/36 60/74/62
f 39/58/12 43/75/40 44/72/61 40/55/49
f 40/55/49 44/72/61 45/68/57 41/67/56
f 48/76/59 53/56/50 54/69/58 49/77/60
f 47/78/41 52/57/13 53/56/50 48/76/59
f 49/77/60 54/69/58 51/33/33 50/44/42
f 19/61/18 47/79/41 48/70/59 21/60/52
f 23/59/51 49/71/60 50/46/42 25/16/16
f 41/67/56 54/69/58 53/56/50 40/55/49
f 38/27/27 10/20/20 87/80/63 88/81/64
f 43/40/40 13/23/23 56/26/26 55/82/37
f 46/31/31 45/68/57 60/74/62 58/65/55
f 44/72/61 43/75/40 55/83/37 59/73/36
f 62/84/65 64/85/66 70/86/67 68/87/68
f 60/88/62 59/36/36 65/39/39 66/89/69
f 56/90/26 57/91/25 62/92/65 61/93/70
f 57/91/25 58/94/55 64/95/66 62/92/65
f 58/94/55 60/88/62 66/89/69 64/95/66
f 55/96/37 56/90/26 61/93/70 63/97/38
f 69/98/71 67/99/72 73/100/73 75/101/74
f 61/102/70 62/84/65 68/87/68 67/99/72
f 64/85/66 66/103/69 72/104/75 70/86/67
f 65/105/39 63/106/38 69/107/71 71/108/76
f 63/109/38 61/102/70 67/99/72 69/98/71
f 66/103/69 65/105/39 71/108/76 72/104/75
f 73/100/73 74/110/77 80/111/78 79/112/79
f 72/104/75 71/108/76 77/113/80 78/114/81
f 68/87/68 70/86/67 76/115/82 74/110/77
f 67/99/72 68/87/68 74/110/77 73/100/73
f 70/86/67 72/104/75 78/114/81 76/115/82
f 71/108/76 69/107/71 75/116/74 77/113/80
f 82/117/83 84/118/84 83/119/85 81/120/86 79/121/79 80/122/78
f 76/115/82 78/114/81 84/123/84 82/124/83
f 77/113/80 75/116/74 81/125/86 83/126/85
f 75/101/74 73/100/73 79/112/79 81/127/86
f 78/114/81 77/113/80 83/126/85 84/123/84
f 74/110/77 76/115/82 82/124/83 80/111/78
f 90/128/87 88/129/64 94/130/88 96/131/89
f 35/63/54 37/62/53 90/132/87 89/133/90
f 9/19/19 36/28/28 86/134/91 85/135/92
f 37/62/53 38/27/27 88/81/64 90/132/87
f 10/20/20 9/19/19 85/135/92 87/80/63
f 36/66/28 35/63/54 89/133/90 86/136/91
f 95/137/93 96/138/89 94/139/88 93/140/94 91/141/95 92/142/96
f 86/143/91 89/144/90 95/145/93 92/146/96
f 87/147/63 85/148/92 91/149/95 93/150/94
f 89/144/90 90/128/87 96/131/89 95/145/93
f 88/129/64 87/147/63 93/150/94 94/130/88
f 85/148/92 86/151/91 92/152/96 91/149/95
