# Blender v2.79 (sub 0) OBJ File: 'Phone.blend'
# www.blender.org
mtllib Phone.mtl
o Cube_Cube.001
v 3.119361 0.869837 2.187389
v 3.012053 1.467559 2.041049
v 3.119361 0.869837 1.047074
v 3.012053 1.467559 1.191080
v 1.813531 2.402107 1.185955
v 1.446358 1.794518 2.180513
v 1.446358 1.794518 1.040198
v 1.813531 2.402107 2.035924
v 1.900691 0.634858 0.509754
v 2.278111 1.323599 0.509754
v 2.737822 0.177717 1.057239
v 2.737822 0.177717 2.166694
v 1.900691 0.634858 2.711199
v 2.278111 1.323599 2.711199
v 1.065654 1.095785 2.165178
v 1.065654 1.095785 1.055722
v -2.847925 2.370416 2.187389
v -2.474507 2.852059 2.041049
v -2.847925 2.370416 1.047074
v -2.474507 2.852059 1.191080
v 0.307587 2.237975 1.040198
v 0.478455 2.917460 1.185955
v 0.307587 2.237975 2.180513
v 0.478455 2.917460 2.035924
v -0.972625 3.102734 1.185955
v -0.936530 2.393737 2.180513
v -0.936530 2.393737 1.040198
v -0.972625 3.102734 2.035924
v -1.885366 1.586929 0.509754
v -1.892102 2.372272 0.509754
v -2.839159 1.580146 1.057239
v -2.839159 1.580146 2.166694
v -1.885366 1.586929 2.711199
v -1.892102 2.372272 2.711199
v -0.931628 1.598036 2.165178
v -0.931628 1.598036 1.055722
v -3.035554 -0.569153 2.918577
v 0.000000 1.591341 2.918578
v -3.035554 -0.569153 -2.661386
v -3.035554 2.837518 -2.661386
v 3.035554 -0.569153 2.918577
v 3.035554 -0.569153 -2.661386
v 3.035554 0.264775 -2.661386
v -3.035554 2.837518 0.257191
v 3.035554 0.264775 0.257191
v 0.000000 1.591341 0.257191
v 2.495767 1.978559 1.188517
v 2.495767 1.978559 2.038486
v -1.774056 3.052280 2.038486
v -1.774056 3.052280 1.188517
v -3.035554 1.568251 2.918577
v 3.035554 0.056293 2.918577
v 3.035554 0.056293 0.257191
v -3.035554 1.568251 0.257191
v -2.902749 2.401230 0.075755
v -2.708561 2.858708 0.075755
v -2.902749 2.401230 -2.497318
v -2.708561 2.858708 -2.497318
v -1.061739 1.619767 0.075755
v -0.867551 2.077245 0.075755
v -1.061739 1.619767 -2.497318
v -0.867551 2.077245 -2.497318
v -2.543175 2.788506 -0.155395
v -2.543175 2.788506 -2.266168
v -1.032937 2.147448 -2.266168
v -1.032937 2.147448 -0.155395
v -2.569477 2.726543 -0.155395
v -2.569477 2.726543 -2.266168
v -1.059239 2.085485 -2.266168
v -1.059239 2.085485 -0.155395
v 0.538311 0.905230 -0.162199
v 0.761810 1.431759 -0.162199
v 0.538311 0.905230 -0.734199
v 0.761810 1.431759 -0.734199
v 1.064841 0.681732 -0.162199
v 1.288339 1.208261 -0.162199
v 1.064841 0.681732 -0.734199
v 1.288339 1.208261 -0.734199
v 0.538311 0.905230 -0.894822
v 0.761810 1.431759 -0.894822
v 0.538311 0.905230 -1.466822
v 0.761810 1.431759 -1.466822
v 1.064841 0.681732 -0.894822
v 1.288339 1.208261 -0.894822
v 1.064841 0.681732 -1.466822
v 1.288339 1.208261 -1.466822
v 0.538311 0.905230 -1.647846
v 0.761810 1.431759 -1.647846
v 0.538311 0.905230 -2.219847
v 0.761810 1.431759 -2.219847
v 1.064841 0.681732 -1.647846
v 1.288339 1.208261 -1.647846
v 1.064841 0.681732 -2.219847
v 1.288339 1.208261 -2.219847
v 1.258451 0.597495 -0.162199
v 1.481950 1.124024 -0.162199
v 1.258451 0.597495 -0.734199
v 1.481950 1.124024 -0.734199
v 1.784981 0.373997 -0.162199
v 2.008479 0.900526 -0.162199
v 1.784981 0.373997 -0.734199
v 2.008479 0.900526 -0.734199
v 1.258451 0.597495 -0.894822
v 1.481950 1.124024 -0.894822
v 1.258451 0.597495 -1.466822
v 1.481950 1.124024 -1.466822
v 1.784981 0.373997 -0.894822
v 2.008479 0.900526 -0.894822
v 1.784981 0.373997 -1.466822
v 2.008479 0.900526 -1.466822
v 1.258451 0.597495 -1.647846
v 1.481950 1.124024 -1.647846
v 1.258451 0.597495 -2.219847
v 1.481950 1.124024 -2.219847
v 1.784981 0.373997 -1.647846
v 2.008479 0.900526 -1.647846
v 1.784981 0.373997 -2.219847
v 2.008479 0.900526 -2.219847
v 1.985826 0.300201 -0.162199
v 2.209325 0.826730 -0.162199
v 1.985826 0.300201 -0.734199
v 2.209325 0.826730 -0.734199
v 2.512356 0.076703 -0.162199
v 2.735854 0.603232 -0.162199
v 2.512356 0.076703 -0.734199
v 2.735854 0.603232 -0.734199
v 1.985826 0.300201 -0.894822
v 2.209325 0.826730 -0.894822
v 1.985826 0.300201 -1.466822
v 2.209325 0.826730 -1.466822
v 2.512356 0.076703 -0.894822
v 2.735854 0.603232 -0.894822
v 2.512356 0.076703 -1.466822
v 2.735854 0.603232 -1.466822
v 1.985826 0.300201 -1.647846
v 2.209325 0.826730 -1.647846
v 1.985826 0.300201 -2.219847
v 2.209325 0.826730 -2.219847
v 2.512356 0.076703 -1.647846
v 2.735854 0.603232 -1.647846
v 2.512356 0.076703 -2.219847
v 2.735854 0.603232 -2.219847
v -0.232430 1.329768 -2.191738
v -0.040965 1.780830 -2.191738
v 0.304766 1.101742 -1.676927
v 0.496230 1.552804 -1.676927
v 0.304766 1.101742 -0.647305
v 0.496230 1.552804 -0.647305
v -0.232430 1.329768 -0.132494
v -0.040966 1.780830 -0.132494
v -0.769625 1.557794 -0.647305
v -0.578161 2.008856 -0.647305
v -0.769625 1.557794 -1.676927
v -0.578161 2.008856 -1.676927
v -2.882344 -0.734379 2.608990
v -2.882344 -0.734379 -2.385799
v 2.882344 -0.734379 2.608990
v 2.882344 -0.734379 -2.385799
v -2.882344 -0.734379 1.984642
v -2.161758 -0.734379 -2.385799
v 2.882344 -0.734379 -1.761451
v 2.161758 -0.734379 2.608990
v -2.882344 -0.734379 -1.761451
v 2.161758 -0.734379 -2.385799
v 2.882344 -0.734379 1.984642
v -2.161758 -0.734379 2.608990
v -2.161758 -0.734379 1.984642
v -2.161758 -0.734379 -1.761451
v 2.161758 -0.734379 -1.761451
v 2.161758 -0.512335 1.984642
v 2.161758 -0.512335 -1.761451
v -2.161758 -0.512335 -1.761451
v -2.161758 -0.512335 1.984642
v -2.161758 -0.512335 2.608990
v 2.882344 -0.512335 1.984642
v 2.161758 -0.512335 -2.385799
v -2.882344 -0.512335 -1.761451
v 2.882344 -0.512335 2.608990
v 2.161758 -0.512335 2.608990
v 2.882344 -0.512335 -2.385799
v 2.882344 -0.512335 -1.761451
v 2.161758 -0.734379 1.984642
v -2.882344 -0.512335 -2.385799
v -2.161758 -0.512335 -2.385799
v -2.882344 -0.512335 2.608990
v -2.882344 -0.512335 1.984642
vn -0.5545 0.1150 -0.8242
vn 0.2986 0.7832 -0.5453
vn 0.1672 0.2374 -0.9569
vn 0.8731 -0.1221 -0.4720
vn 0.8209 0.4602 -0.3380
vn 0.8191 0.4612 0.3410
vn 0.8701 -0.1222 0.4774
vn 0.1946 0.7693 -0.6085
vn 0.1944 0.7689 0.6091
vn 0.2978 0.7833 0.5456
vn -0.5548 0.1142 0.8241
vn -0.1454 -0.5742 0.8056
vn 0.1625 0.2368 0.9579
vn 0.5728 0.7342 -0.3645
vn 0.5704 0.7349 0.3669
vn -0.1452 -0.5736 -0.8061
vn -0.2942 -0.5390 -0.7892
vn 0.3064 -0.8656 -0.3961
vn 0.3053 -0.8663 0.3953
vn -0.2972 -0.5389 0.7881
vn -0.8947 -0.2073 0.3957
vn -0.8947 -0.2073 -0.3957
vn 0.5422 -0.1607 -0.8247
vn -0.0343 0.2874 -0.9572
vn 0.1084 0.8314 -0.5449
vn -0.8280 0.3014 -0.4728
vn -0.8254 0.2999 0.4782
vn -0.5042 0.7927 0.3424
vn -0.5063 0.7927 -0.3394
vn 0.1092 0.8311 0.5453
vn 0.5421 -0.1616 0.8246
vn -0.0304 0.2846 0.9581
vn -0.1510 0.9176 0.3676
vn -0.1534 0.9182 -0.3651
vn 0.0042 -0.6141 -0.7892
vn -0.6794 -0.6177 -0.3961
vn -0.6788 -0.6188 0.3953
vn 0.0069 -0.6154 0.7881
vn 0.6901 -0.6059 0.3957
vn 0.6901 -0.6059 -0.3957
vn 0.9499 0.2456 0.1932
vn 0.5773 -0.5773 -0.5773
vn 0.6668 0.4387 -0.6024
vn 0.6681 0.4371 0.6022
vn 0.1719 0.7334 0.6577
vn -0.5793 0.5749 0.5777
vn -0.5773 -0.5773 0.5773
vn -0.9053 0.3010 0.2995
vn 0.3107 0.9479 0.0698
vn -0.4594 0.6891 -0.5604
vn 0.6776 0.4166 0.6060
vn -0.5773 -0.5773 -0.5773
vn 0.5773 -0.5773 0.5773
vn -0.4615 0.6883 0.5596
vn -0.6509 0.2763 0.7071
vn -0.3059 0.7570 0.5773
vn -0.3059 0.7570 -0.5773
vn -0.6509 0.2763 -0.7071
vn 0.7570 0.3059 -0.5773
vn 0.6509 -0.2763 -0.7071
vn 0.7570 0.3059 0.5773
vn 0.6509 -0.2763 0.7071
vn 0.6310 0.7148 -0.3015
vn 0.6310 0.7148 0.3015
vn 0.0759 0.9504 -0.3015
vn 0.0759 0.9504 0.3015
vn 0.0000 0.0000 -1.0000
vn 0.2282 0.5378 -0.8116
vn 0.8991 0.2975 -0.3211
vn 0.8390 -0.3561 -0.4114
vn 0.8991 0.2975 0.3211
vn 0.8390 -0.3561 0.4114
vn 0.2282 0.5378 0.8116
vn 0.0000 0.0000 1.0000
vn -0.4105 0.8534 0.3211
vn -0.8390 0.3561 0.4114
vn -0.4105 0.8534 -0.3211
vn -0.8390 0.3561 -0.4114
vn 0.7071 0.0000 0.7071
vn 0.7071 0.0000 -0.7071
vn -0.7071 0.0000 0.7071
vn -0.7071 0.0000 -0.7071
usemtl None
s 1
f 7//1 5//2 10//3
f 3//4 4//5 2//6 1//7
f 5//2 22//8 24//9 8//10
f 6//11 8//10 24//9 23//12
f 1//7 2//6 14//13
f 4//5 47//14 48//15 2//6
f 21//16 7//1 6//11 23//12
f 21//16 22//8 5//2 7//1
f 9//17 10//3 3//4 11//18
f 11//18 3//4 1//7 12//19
f 12//19 1//7 14//13 13//20
f 13//20 14//13 6//11 15//21
f 15//21 6//11 7//1 16//22
f 16//22 7//1 10//3 9//17
f 9//17 11//18 12//19 13//20 15//21 16//22
f 4//5 3//4 10//3
f 10//3 5//2 47//14
f 27//23 30//24 25//25
f 19//26 17//27 18//28 20//29
f 25//25 28//30 24//9 22//8
f 26//31 23//12 24//9 28//30
f 17//27 34//32 18//28
f 20//29 18//28 49//33 50//34
f 21//16 23//12 26//31 27//23
f 21//16 27//23 25//25 22//8
f 29//35 31//36 19//26 30//24
f 31//36 32//37 17//27 19//26
f 32//37 33//38 34//32 17//27
f 33//38 35//39 26//31 34//32
f 35//39 36//40 27//23 26//31
f 36//40 29//35 30//24 27//23
f 29//35 36//40 35//39 33//38 32//37 31//36
f 20//29 30//24 19//26
f 25//25 30//24 50//34
f 53//41 42//42 43//43 45//44
f 38//45 51//46 37//47
f 54//48 51//46 38//45 46//49
f 43//43 40//50 46//49
f 52//51 53//41 46//49 38//45
f 39//52 40//50 43//43 42//42
f 37//47 41//53 52//51 38//45
f 46//49 53//41 45//44
f 46//49 40//50 44//54
f 46//49 44//54 54//48
f 39//52 54//48 44//54 40//50
f 10//3 47//14 4//5
f 14//13 8//10 6//11
f 48//15 47//14 5//2 8//10
f 14//13 2//6 48//15
f 8//10 14//13 48//15
f 49//33 34//32 28//30
f 50//34 49//33 28//30 25//25
f 50//34 30//24 20//29
f 18//28 34//32 49//33
f 28//30 34//32 26//31
f 39//52 42//42 41//53 37//47
f 37//47 51//46 54//48 39//52
f 46//49 45//44 43//43
f 42//42 53//41 52//51 41//53
f 55//55 56//56 58//57 57//58
f 57//58 58//57 62//59 61//60
f 61//60 62//59 60//61 59//62
f 59//62 60//61 56//56 55//55
f 58//57 56//56 63//63 64//64
f 63//63 66//65 70//57 67//59
f 56//56 60//61 66//65 63//63
f 62//59 58//57 64//64 65//66
f 60//61 62//59 65//66 66//65
f 69//56 68//61 67//59 70//57
f 65//66 64//64 68//61 69//56
f 66//65 65//66 69//56 70//57
f 64//64 63//63 67//59 68//61
f 71//55 72//56 74//57 73//58
f 73//58 74//57 78//59 77//60
f 77//60 78//59 76//61 75//62
f 75//62 76//61 72//56 71//55
f 79//55 80//56 82//57 81//58
f 78//59 74//57 72//56 76//61
f 81//58 82//57 86//59 85//60
f 85//60 86//59 84//61 83//62
f 83//62 84//61 80//56 79//55
f 86//59 82//57 80//56 84//61
f 87//55 88//56 90//57 89//58
f 89//58 90//57 94//59 93//60
f 93//60 94//59 92//61 91//62
f 91//62 92//61 88//56 87//55
f 94//59 90//57 88//56 92//61
f 95//55 96//56 98//57 97//58
f 97//58 98//57 102//59 101//60
f 101//60 102//59 100//61 99//62
f 99//62 100//61 96//56 95//55
f 103//55 104//56 106//57 105//58
f 102//59 98//57 96//56 100//61
f 105//58 106//57 110//59 109//60
f 109//60 110//59 108//61 107//62
f 107//62 108//61 104//56 103//55
f 110//59 106//57 104//56 108//61
f 111//55 112//56 114//57 113//58
f 113//58 114//57 118//59 117//60
f 117//60 118//59 116//61 115//62
f 115//62 116//61 112//56 111//55
f 118//59 114//57 112//56 116//61
f 119//55 120//56 122//57 121//58
f 121//58 122//57 126//59 125//60
f 125//60 126//59 124//61 123//62
f 123//62 124//61 120//56 119//55
f 127//55 128//56 130//57 129//58
f 126//59 122//57 120//56 124//61
f 129//58 130//57 134//59 133//60
f 133//60 134//59 132//61 131//62
f 131//62 132//61 128//56 127//55
f 134//59 130//57 128//56 132//61
f 135//55 136//56 138//57 137//58
f 137//58 138//57 142//59 141//60
f 141//60 142//59 140//61 139//62
f 139//62 140//61 136//56 135//55
f 142//59 138//57 136//56 140//61
f 143//67 144//68 146//69 145//70
f 145//70 146//69 148//71 147//72
f 147//72 148//71 150//73 149//74
f 149//74 150//73 152//75 151//76
f 146//69 144//68 154//77 152//75 150//73 148//71
f 151//76 152//75 154//77 153//78
f 153//78 154//77 144//68 143//67
f 182//53 165//47 157//52 162//42
f 159//53 167//47 166//52 155//42
f 156//53 160//47 168//52 163//42
f 164//53 158//47 161//52 169//42
f 169//42 164//53 176//79 171//80
f 159//53 167//47 173//81 186//79
f 160//47 168//52 172//82 184//81
f 164//53 158//47 180//81 176//79
f 167//47 166//52 174//82 173//81
f 156//53 160//47 184//81 183//79
f 182//53 165//47 175//81 170//79
f 166//52 155//42 185//80 174//82
f 157//52 162//42 179//80 178//82
f 161//52 169//42 171//80 181//82
f 162//42 182//53 170//79 179//80
f 163//42 156//53 183//79 177//80
f 155//42 159//53 186//79 185//80
f 165//47 157//52 178//82 175//81
f 158//47 161//52 181//82 180//81
f 168//52 163//42 177//80 172//82
