# 3ds Max Wavefront OBJ Exporter v0.97b - (c)2007 guruware
# File Created: 23.10.2017 11:31:20

mtllib Rug.mtl

#
# object Cylinder001
#

v  30.4045 11.0547 2.8780
v  20.6900 11.0547 -20.5748
v  20.6900 11.1751 -20.5748
v  30.4045 11.1751 2.8780
v  -2.7629 11.0547 -30.2893
v  -2.7629 11.1751 -30.2893
v  -26.2157 11.0547 -20.5748
v  -26.2157 11.1751 -20.5748
v  -35.9302 11.0547 2.8781
v  -35.9302 11.1751 2.8781
v  -26.2157 11.0547 26.3309
v  -26.2157 11.1751 26.3309
v  -2.7629 11.0547 36.0454
v  -2.7629 11.1751 36.0454
v  20.6900 11.0547 26.3309
v  20.6935 11.0976 26.3309
v  20.6900 11.2955 -20.5748
v  30.4045 11.2955 2.8780
v  -2.7629 11.2955 -30.2893
v  -26.2157 11.2955 -20.5748
v  -35.9302 11.2955 2.8781
v  -26.2157 11.2955 26.3309
v  -2.7629 11.2955 36.0454
v  20.6948 11.2180 26.3309
v  20.6900 11.4159 -20.5748
v  30.2235 11.4155 3.3150
v  -2.7629 11.4159 -30.2893
v  -26.2157 11.4159 -20.5748
v  -35.9302 11.4159 2.8781
v  -26.2157 11.4159 26.3309
v  -2.7629 11.4159 36.0454
v  20.8694 11.3387 25.8940
v  20.2448 11.5360 -20.1296
v  29.7748 11.5360 2.8780
v  -2.7629 11.5360 -29.6597
v  -25.7705 11.5360 -20.1296
v  -35.3006 11.5360 2.8781
v  -25.7705 11.5360 25.8857
v  -2.7629 11.5360 35.4158
v  20.2418 11.4600 25.8857
v  19.6655 11.6566 -19.7634
v  29.0180 11.6566 2.8156
v  -2.9136 11.6566 -29.1159
v  -25.4926 11.6566 -19.7634
v  -34.8451 11.6566 2.8156
v  -25.4926 11.6566 25.3947
v  -2.9136 11.6566 34.7472
v  19.6554 11.5797 25.3947
# 48 vertices

vn 1.0000 0.0000 -0.0000
vn 0.7071 0.0000 -0.7071
vn 1.0000 -0.0000 -0.0000
vn -0.0000 0.0000 -1.0000
vn -0.7071 0.0000 -0.7071
vn -1.0000 0.0000 0.0000
vn -0.7071 0.0000 0.7071
vn -0.0000 -0.0000 1.0000
vn 0.6754 -0.1345 0.7251
vn 0.7144 -0.0797 0.6952
vn 0.8198 0.5722 -0.0225
vn 0.0032 0.0023 1.0000
vn 0.5692 0.5658 0.5966
vn 0.5629 0.6056 -0.5625
vn 0.6850 0.6839 0.2513
vn 0.0000 0.6054 -0.7959
vn -0.5628 0.6054 -0.5628
vn -0.7959 0.6054 0.0000
vn -0.5628 0.6054 0.5628
vn 0.0052 0.6044 0.7967
vn 0.6249 0.7245 0.2910
vn 0.0560 0.9970 -0.0538
vn 0.1201 0.9924 -0.0261
vn 0.0017 0.9965 -0.0837
vn -0.0634 0.9959 -0.0648
vn -0.0906 0.9959 0.0010
vn -0.0580 0.9965 0.0603
vn 0.0018 0.9970 0.0774
vn 0.0662 0.9928 0.0999
vn 0.0495 0.9971 -0.0586
vn 0.0664 0.9978 -0.0014
vn -0.0097 0.9955 -0.0947
vn -0.0821 0.9939 -0.0741
vn -0.1105 0.9939 -0.0057
vn -0.0738 0.9955 0.0601
vn -0.0059 0.9971 0.0763
vn 0.0449 0.9978 0.0479
vn 0.0000 -1.0000 -0.0000
vn -0.0003 1.0000 0.0006
vn 0.0000 1.0000 -0.0000
vn 0.0002 1.0000 0.0002
vn 0.0001 1.0000 0.0001
vn 0.0006 1.0000 -0.0003
vn 0.0007 1.0000 -0.0017
vn -0.0017 1.0000 0.0007
# 45 vertex normals

vt 0.7500 0.0000 1.0000
vt 0.8750 0.0000 1.0000
vt 0.8750 0.2000 1.0000
vt 0.7500 0.2000 1.0000
vt 1.0000 0.0000 1.0000
vt 1.0000 0.2000 1.0000
vt 0.0000 0.0000 1.0000
vt 0.1250 0.0000 1.0000
vt 0.1250 0.2000 1.0000
vt 0.0000 0.2000 1.0000
vt 0.2500 0.0000 1.0000
vt 0.2500 0.2000 1.0000
vt 0.3750 0.0000 1.0000
vt 0.3750 0.2000 1.0000
vt 0.5000 0.0000 1.0000
vt 0.5000 0.2000 1.0000
vt 0.6250 0.0000 1.0000
vt 0.6250 0.2000 1.0000
vt 0.8750 0.4000 1.0000
vt 0.7500 0.4000 1.0000
vt 1.0000 0.4000 1.0000
vt 0.1250 0.4000 1.0000
vt 0.0000 0.4000 1.0000
vt 0.2500 0.4000 1.0000
vt 0.3750 0.4000 1.0000
vt 0.5000 0.4000 1.0000
vt 0.6250 0.4000 1.0000
vt 0.8750 0.6000 1.0000
vt 0.7500 0.6000 1.0000
vt 1.0000 0.6000 1.0000
vt 0.1250 0.6000 1.0000
vt 0.0000 0.6000 1.0000
vt 0.2500 0.6000 1.0000
vt 0.3750 0.6000 1.0000
vt 0.5000 0.6000 1.0000
vt 0.6250 0.6000 1.0000
vt 0.8750 0.8000 1.0000
vt 0.7500 0.8000 1.0000
vt 1.0000 0.8000 1.0000
vt 0.1250 0.8000 1.0000
vt 0.0000 0.8000 1.0000
vt 0.2500 0.8000 1.0000
vt 0.3750 0.8000 1.0000
vt 0.5000 0.8000 1.0000
vt 0.6250 0.8000 1.0000
vt 0.8750 1.0000 1.0000
vt 0.7500 1.0000 1.0000
vt 1.0000 1.0000 1.0000
vt 0.1250 1.0000 1.0000
vt 0.0000 1.0000 1.0000
vt 0.2500 1.0000 1.0000
vt 0.3750 1.0000 1.0000
vt 0.5000 1.0000 1.0000
vt 0.6250 1.0000 1.0000
vt 1.0000 0.5000 -0.2500
vt 0.8536 0.1464 -0.2500
vt 0.5000 0.0000 -0.2500
vt 0.5000 1.0000 -0.2500
vt 0.1464 0.1464 -0.2500
vt 0.0000 0.5000 -0.2500
vt 0.1464 0.8536 -0.2500
vt 0.8536 0.8536 -0.2500
vt 0.1464 0.8536 0.2500
vt 0.0000 0.5000 0.2500
vt 0.1464 0.1464 0.2500
vt 0.8536 0.8536 0.2500
vt 0.5000 0.0000 0.2500
vt 0.8536 0.1464 0.2500
vt 1.0000 0.5000 0.2500
vt 0.5000 1.0000 0.2500
# 70 texture coords

g Cylinder001
usemtl wire_148177027
s 8
f 1/1/1 2/2/2 3/3/2 4/4/3 
f 2/2/2 5/5/4 6/6/4 3/3/2 
f 5/7/4 7/8/5 8/9/5 6/10/4 
f 7/8/5 9/11/6 10/12/6 8/9/5 
f 9/11/6 11/13/7 12/14/7 10/12/6 
f 11/13/7 13/15/8 14/16/8 12/14/7 
f 13/15/8 15/17/9 16/18/10 14/16/8 
f 15/17/9 1/1/1 4/4/3 16/18/10 
f 4/4/3 3/3/2 17/19/2 18/20/11 
f 3/3/2 6/6/4 19/21/4 17/19/2 
f 6/10/4 8/9/5 20/22/5 19/23/4 
f 8/9/5 10/12/6 21/24/6 20/22/5 
f 10/12/6 12/14/7 22/25/7 21/24/6 
f 12/14/7 14/16/8 23/26/12 22/25/7 
f 14/16/8 16/18/10 24/27/13 23/26/12 
f 16/18/10 4/4/3 18/20/11 24/27/13 
f 18/20/11 17/19/2 25/28/14 26/29/15 
f 17/19/2 19/21/4 27/30/16 25/28/14 
f 19/23/4 20/22/5 28/31/17 27/32/16 
f 20/22/5 21/24/6 29/33/18 28/31/17 
f 21/24/6 22/25/7 30/34/19 29/33/18 
f 22/25/7 23/26/12 31/35/20 30/34/19 
f 23/26/12 24/27/13 32/36/21 31/35/20 
f 24/27/13 18/20/11 26/29/15 32/36/21 
f 26/29/15 25/28/14 33/37/22 34/38/23 
f 25/28/14 27/30/16 35/39/24 33/37/22 
f 27/32/16 28/31/17 36/40/25 35/41/24 
f 28/31/17 29/33/18 37/42/26 36/40/25 
f 29/33/18 30/34/19 38/43/27 37/42/26 
f 30/34/19 31/35/20 39/44/28 38/43/27 
f 31/35/20 32/36/21 40/45/29 39/44/28 
f 32/36/21 26/29/15 34/38/23 40/45/29 
f 34/38/23 33/37/22 41/46/30 42/47/31 
f 33/37/22 35/39/24 43/48/32 41/46/30 
f 35/41/24 36/40/25 44/49/33 43/50/32 
f 36/40/25 37/42/26 45/51/34 44/49/33 
f 37/42/26 38/43/27 46/52/35 45/51/34 
f 38/43/27 39/44/28 47/53/36 46/52/35 
f 39/44/28 40/45/29 48/54/37 47/53/36 
f 40/45/29 34/38/23 42/47/31 48/54/37 
s 1
f 13/55/38 11/56/38 9/57/38 1/58/38 
f 9/57/38 7/59/38 5/60/38 1/58/38 
f 5/60/38 2/61/38 1/58/38 
f 15/62/38 13/55/38 1/58/38 
f 41/63/39 43/64/40 44/65/41 48/66/42 
f 44/65/41 45/67/40 46/68/43 48/66/42 
f 46/68/43 47/69/44 48/66/42 
f 42/70/45 41/63/39 48/66/42 
# 44 polygons - 4 triangles

