# Blender v2.79 (sub 0) OBJ File: 'Shelf.blend'
# www.blender.org
mtllib Shelf.mtl
o Cube
v 1.751889 0.901030 -1.000000
v 1.751889 0.901030 1.000000
v 1.751890 1.220067 -1.000000
v 1.751889 1.220067 1.214146
v 1.751889 0.901030 -1.205532
v 1.963106 1.220067 -1.212867
v 1.751889 0.901030 1.203597
v 1.927468 0.901030 -1.000000
v 1.928997 0.901030 1.000000
v 1.963105 1.220067 1.212868
v 1.943720 0.901030 -1.192086
v 1.933800 0.901030 1.200835
v 1.715865 0.015565 0.992358
v 1.715865 0.015565 1.147688
v 1.715865 0.015565 -0.992358
v 1.715865 0.015565 -1.147688
v 1.874363 0.015565 -0.992358
v 1.874363 0.015565 0.992358
v 1.874363 0.015565 1.146761
v 1.874363 0.015565 -1.146761
v 1.875866 2.772453 -1.000000
v 1.875865 2.772453 1.000001
v 1.875866 3.062812 -1.000000
v 1.875865 3.062812 1.000001
v 1.967557 4.806971 -1.000000
v 1.967556 4.806971 1.000001
v 2.178773 4.935904 -1.212867
v 1.967556 4.935904 1.214146
v 2.178772 4.935904 1.212868
v 1.967557 5.064836 -1.000000
v 1.967556 5.064836 1.000001
v 2.072968 6.814393 -1.000000
v 2.072967 6.814393 1.000001
v 2.329810 8.725510 -1.212867
v 2.118593 8.725510 1.214146
v 2.329809 8.725510 1.212868
v 2.072968 7.066202 -1.000000
v 2.072967 7.066202 1.000001
v 2.118594 8.725510 -1.000000
v 2.118594 8.954559 -1.000000
v 2.118593 8.954559 1.076370
v 2.248109 8.905184 -1.176510
v 2.246850 8.906258 1.102416
v -1.751889 0.901030 -1.000000
v -1.751889 0.901030 1.000000
v -1.751890 1.220067 -1.000000
v -1.751889 1.220067 1.214146
v -1.751889 0.901030 -1.205532
v -1.963106 1.220067 -1.212867
v -1.751889 0.901030 1.203597
v -1.927468 0.901030 -1.000000
v -1.928997 0.901030 1.000000
v -1.963105 1.220067 1.212868
v -1.943720 0.901030 -1.192086
v -1.933800 0.901030 1.200835
v -1.715865 0.015565 0.992358
v -1.715865 0.015565 1.147688
v -1.715865 0.015565 -0.992358
v -1.715865 0.015565 -1.147688
v -1.874363 0.015565 -0.992358
v -1.874363 0.015565 0.992358
v -1.874363 0.015565 1.146761
v -1.874363 0.015565 -1.146761
v -1.875866 2.772453 -1.000000
v -1.875865 2.772453 1.000001
v -1.875866 3.062812 -1.000000
v -1.875865 3.062812 1.000001
v -1.967557 4.806971 -1.000000
v -1.967556 4.806971 1.000001
v -2.178773 4.935904 -1.212867
v -1.967556 4.935904 1.214146
v -2.178772 4.935904 1.212868
v -1.967557 5.064836 -1.000000
v -1.967556 5.064836 1.000001
v -2.072968 6.814393 -1.000000
v -2.072967 6.814393 1.000001
v -2.329810 8.725510 -1.212867
v -2.118593 8.725510 1.214146
v -2.329809 8.725510 1.212868
v -2.072968 7.066202 -1.000000
v -2.072967 7.066202 1.000001
v -2.118594 8.725510 -1.000000
v -2.118594 8.954559 -1.000000
v -2.118593 8.954559 1.130808
v -2.248109 8.905184 -1.176510
v -2.246850 8.906258 1.156855
vt 0.356231 0.643100
vt 0.153922 0.643100
vt 0.158636 0.553430
vt 0.351517 0.553431
vt 0.071686 0.281039
vt 0.369668 0.281010
vt 0.369671 0.308157
vt 0.071689 0.308187
vt 0.527782 0.045939
vt 0.707916 0.045939
vt 0.707916 0.148762
vt 0.527782 0.148762
vt 0.401980 0.287922
vt 0.046257 0.287920
vt 0.065394 0.259007
vt 0.382843 0.259009
vt 0.527782 0.035372
vt 0.707916 0.035372
vt 0.777927 0.396073
vt 0.585045 0.396073
vt 0.585045 0.381145
vt 0.777927 0.381145
vt 0.230113 0.265844
vt 0.248849 0.294100
vt 0.035342 0.294100
vt 0.054078 0.265859
vt 0.385140 0.281001
vt 0.366634 0.205554
vt 0.380114 0.205554
vt 0.716943 0.045939
vt 0.717022 0.148762
vt 0.047971 0.258951
vt 0.387633 0.308152
vt 0.036396 0.265901
vt 0.054212 0.178618
vt 0.068572 0.178608
vt 0.247080 0.265963
vt 0.972067 0.020739
vt 0.972067 0.028887
vt 0.964082 0.028887
vt 0.964129 0.020739
vt 0.981091 0.011925
vt 0.981091 0.020074
vt 0.973153 0.020074
vt 0.973105 0.011925
vt 0.706064 0.000414
vt 0.714213 0.000414
vt 0.229549 0.187767
vt 0.243139 0.187786
vt 0.714213 0.194287
vt 0.706064 0.194287
vt 0.753477 0.038346
vt 0.753477 0.046332
vt 0.041095 0.187785
vt 0.054685 0.187774
vt 0.707916 0.159229
vt 0.753477 0.148369
vt 0.753477 0.156355
vt 0.387336 0.649166
vt 0.358271 0.481236
vt 0.356299 0.455265
vt 0.367893 0.314732
vt 0.344315 0.422204
vt 0.151433 0.422204
vt 0.157807 0.342394
vt 0.337941 0.342394
vt 0.451412 0.333332
vt 0.446811 0.414019
vt 0.367369 0.638331
vt 0.421518 0.624585
vt 0.026715 0.624583
vt 0.880749 0.381145
vt 0.880749 0.396073
vt 0.368426 0.661704
vt 0.787354 0.436902
vt 0.585044 0.436902
vt 0.585044 0.423644
vt 0.787354 0.423644
vt 0.248849 0.621710
vt 0.035342 0.621710
vt 0.406180 0.625204
vt 0.388102 0.625198
vt 0.454198 0.548033
vt 0.458912 0.637702
vt 0.323007 0.756246
vt 0.109858 0.756246
vt 0.115278 0.666299
vt 0.317587 0.666299
vt 0.890176 0.423644
vt 0.890176 0.436902
vt 0.435200 0.967930
vt 0.013029 0.967928
vt 0.248849 0.955527
vt 0.035342 0.955527
vt 0.420149 0.950458
vt 0.402019 0.950514
vt 0.420224 0.660115
vt 0.425643 0.750062
vt 0.798194 0.422816
vt 0.585045 0.422816
vt 0.585045 0.409870
vt 0.798194 0.409870
vt 0.339033 0.787509
vt 0.441818 0.784718
vt 0.455140 0.869728
vt 0.341349 0.872817
vt 0.901016 0.409870
vt 0.901016 0.422816
vt 0.123510 0.872742
vt 0.125885 0.787436
vt 0.813889 0.397177
vt 0.927724 0.397272
vt 0.920631 0.409042
vt 0.813879 0.408953
vt 0.413142 0.968684
vt 0.402160 0.973457
vt 0.981536 0.990108
vt 0.653008 0.993888
vt 0.662318 0.980387
vt 0.971919 0.976825
vt 0.977839 0.825215
vt 0.987921 0.823704
vt 0.596043 0.408771
vt 0.596052 0.396996
vt 0.046095 0.968697
vt 0.046095 0.948559
vt 0.396176 0.948558
vt 0.396200 0.970643
vt 0.245649 0.972899
vt 0.045064 0.973031
vt 0.122914 0.794425
vt 0.340754 0.794425
vt 0.340754 0.908257
vt 0.122914 0.908257
vt 0.698401 0.465157
vt 0.698407 0.450230
vt 0.891287 0.450296
vt 0.891282 0.465224
vt 0.656579 0.831084
vt 0.974073 0.827005
vt 0.974073 0.986667
vt 0.656579 0.986667
vt 0.125414 0.779784
vt 0.125414 0.676961
vt 0.338562 0.676961
vt 0.338562 0.779784
vt 0.657240 0.833065
vt 0.870389 0.833065
vt 0.870389 0.846011
vt 0.657240 0.846011
vt 0.089740 0.632596
vt 0.089740 0.619339
vt 0.292050 0.619339
vt 0.292050 0.632596
vt 0.110414 0.675612
vt 0.323562 0.675612
vt 0.323562 0.778435
vt 0.110414 0.778435
vt 0.121241 0.664815
vt 0.121241 0.561992
vt 0.323550 0.561992
vt 0.323550 0.664815
vt 0.149305 0.565414
vt 0.351615 0.565414
vt 0.351615 0.668237
vt 0.149305 0.668237
vt 0.155414 0.547086
vt 0.155414 0.444263
vt 0.348296 0.444263
vt 0.348296 0.547086
vt 0.146878 0.339492
vt 0.339760 0.339492
vt 0.339760 0.442315
vt 0.146878 0.442315
vt 0.427798 0.984539
vt 0.020432 0.984537
vt 0.375109 0.820229
vt 0.402015 0.992328
vt 0.376062 0.843448
vt 0.066935 0.261260
vt 0.248333 0.261276
vt 0.267641 0.290377
vt 0.047628 0.290377
vt 0.056214 0.281032
vt 0.061231 0.205584
vt 0.074711 0.205582
vt 0.518677 0.148762
vt 0.518755 0.045939
vt 0.400266 0.258953
vt 0.053725 0.308185
vt 0.266554 0.261319
vt 0.379665 0.178610
vt 0.394026 0.178619
vt 0.049451 0.261383
vt 0.964082 0.019863
vt 0.964128 0.011925
vt 0.972277 0.011925
vt 0.972230 0.019911
vt 0.973105 0.020902
vt 0.981091 0.020902
vt 0.981043 0.029050
vt 0.973105 0.029050
vt 0.521486 0.000414
vt 0.529634 0.000414
vt 0.053512 0.180824
vt 0.067517 0.180804
vt 0.529634 0.194286
vt 0.521486 0.194286
vt 0.482222 0.046332
vt 0.482222 0.038346
vt 0.247708 0.180812
vt 0.261712 0.180823
vt 0.527782 0.159229
vt 0.482222 0.156355
vt 0.482222 0.148369
vt 0.034041 0.649241
vt 0.053564 0.314764
vt 0.065113 0.455774
vt 0.063120 0.481834
vt 0.048937 0.414019
vt 0.044336 0.333332
vt 0.053989 0.638722
vt 0.482222 0.396073
vt 0.482222 0.381145
vt 0.052708 0.661947
vt 0.267641 0.627968
vt 0.047628 0.627968
vt 0.053181 0.625269
vt 0.035213 0.625278
vt 0.051241 0.637702
vt 0.055955 0.548032
vt 0.482222 0.436902
vt 0.482222 0.423644
vt 0.267641 0.971956
vt 0.047628 0.971956
vt 0.039181 0.946590
vt 0.021273 0.946527
vt 0.007222 0.750062
vt 0.012641 0.660115
vt 0.009722 0.869574
vt 0.023102 0.784574
vt 0.482222 0.422816
vt 0.482222 0.409870
vt 0.486496 0.408681
vt 0.482222 0.396901
vt 0.039097 0.967255
vt 0.028221 0.962608
vt 0.642551 0.823704
vt 0.652665 0.824983
vt 0.262560 0.989994
vt 0.050925 0.989858
vt 0.045958 0.818776
vt 0.045060 0.841213
vt 0.019272 0.988190
vt 0.157807 0.228562
vt 0.337941 0.228562
vn -0.6753 -0.3201 0.6644
vn 0.6753 -0.3201 0.6644
vn 0.6576 0.3463 0.6690
vn -0.6576 0.3463 0.6690
vn 0.2801 -0.3267 0.9026
vn -0.2801 -0.3267 0.9026
vn -0.3001 0.3083 0.9027
vn 0.3001 0.3083 0.9027
vn 0.3062 -0.8991 0.3126
vn -0.3062 -0.8991 0.3126
vn -0.3062 -0.8991 -0.3126
vn 0.3062 -0.8991 -0.3126
vn -0.7068 -0.0650 -0.7044
vn 0.7068 -0.0650 -0.7044
vn -0.2619 -0.3299 -0.9069
vn 0.2619 -0.3299 -0.9069
vn 0.6796 -0.3132 0.6634
vn -0.6796 -0.3132 0.6634
vn 0.8774 -0.3650 0.3113
vn 0.7082 -0.0684 0.7026
vn 0.8814 -0.3716 -0.2915
vn 0.7086 -0.0892 0.6999
vn -0.5906 -0.5827 0.5583
vn 0.5649 -0.6121 0.5533
vn 0.7494 -0.0893 -0.6561
vn 0.5781 -0.6131 -0.5384
vn -0.5805 -0.5875 -0.5637
vn 0.5474 -0.5844 0.5990
vn -0.5895 -0.5643 0.5779
vn -0.5895 -0.5643 -0.5779
vn 0.5543 -0.5890 -0.5880
vn -0.7049 0.0254 0.7088
vn -0.9436 0.2750 0.1844
vn -0.9619 -0.1968 0.1896
vn 0.5518 0.5976 0.5817
vn -0.5518 0.5976 0.5817
vn -0.9510 -0.2087 0.2279
vn -0.7083 -0.0346 -0.7051
vn 0.7083 -0.0346 -0.7051
vn -0.9323 0.2663 0.2448
vn -0.6562 0.3482 0.6694
vn 0.6562 0.3482 0.6694
vn 0.7104 -0.0348 0.7029
vn -0.6765 -0.3182 0.6641
vn 0.6765 -0.3182 0.6641
vn -0.7161 0.1878 -0.6723
vn 0.7161 0.1878 -0.6723
vn 0.6819 0.2672 0.6809
vn -0.5076 -0.0057 0.8616
vn -0.9600 -0.2087 0.1867
vn -0.6619 0.3401 0.6679
vn 0.6619 0.3401 0.6679
vn -0.9475 0.2619 0.1834
vn -0.6712 -0.3264 0.6655
vn 0.6712 -0.3264 0.6655
vn -0.4696 0.4314 0.7702
vn -0.2243 0.9214 0.3174
vn 0.5224 0.7331 0.4353
vn 0.4675 0.6808 -0.5639
vn -0.4675 0.6808 -0.5639
vn 0.2243 0.9214 0.3174
vn 0.4332 0.3713 0.8212
vn 0.5313 -0.0649 0.8447
vn 0.9436 0.2750 0.1844
vn 0.9619 -0.1968 0.1896
vn 0.9475 0.2619 0.1834
vn 0.9600 -0.2087 0.1867
vn 0.9323 0.2663 0.2448
vn 0.9510 -0.2087 0.2279
vn -0.8774 -0.3650 0.3113
vn -0.8814 -0.3716 -0.2915
vn -0.7082 -0.0684 0.7026
vn -0.7086 -0.0892 0.6999
vn -0.5649 -0.6121 0.5533
vn 0.5906 -0.5827 0.5583
vn -0.7494 -0.0893 -0.6561
vn 0.5805 -0.5875 -0.5637
vn -0.5781 -0.6131 -0.5384
vn -0.5474 -0.5844 0.5990
vn 0.5895 -0.5643 0.5779
vn 0.5895 -0.5643 -0.5779
vn -0.5543 -0.5890 -0.5880
vn 0.7049 0.0254 0.7088
vn -0.7104 -0.0348 0.7029
vn -0.7029 0.2173 0.6772
vn -0.5051 0.6737 0.5395
usemtl Material
s 1
f 25/1/1 68/2/2 66/3/3 23/4/4
f 50/5/5 7/6/6 4/7/7 47/8/8
f 44/9/9 1/10/10 2/11/11 45/12/12
f 49/13/13 6/14/14 5/15/15 48/16/16
f 44/9/9 48/17/16 5/18/15 1/10/10
f 23/19/4 66/20/3 64/21/17 21/22/18
f 8/23/19 6/24/14 10/25/20 9/26/21
f 12/27/22 7/6/6 14/28/23 19/29/24
f 2/11/11 1/10/10 8/30/19 9/31/21
f 5/15/15 6/14/14 11/32/25
f 4/7/7 7/6/6 12/27/22 10/33/20
f 9/26/21 10/25/20 12/34/22
f 5/15/15 11/32/25 20/35/26 16/36/27
f 6/24/14 8/23/19 11/37/25
f 17/38/28 15/39/29 16/40/27 20/41/26
f 13/42/30 18/43/31 19/44/24 14/45/23
f 8/30/19 1/10/10 15/46/29 17/47/28
f 11/37/25 8/23/19 17/48/28 20/49/26
f 2/11/11 9/31/21 18/50/31 13/51/30
f 1/10/10 5/18/15 16/52/27 15/53/29
f 9/26/21 12/34/22 19/54/24 18/55/31
f 7/56/6 2/11/11 13/57/30 14/58/23
f 28/59/32 24/60/33 22/61/34 4/62/7
f 21/63/18 64/64/17 46/65/35 3/66/36
f 3/66/36 4/67/7 22/68/34 21/63/18
f 24/60/33 28/59/32 26/69/37
f 49/13/13 70/70/38 27/71/39 6/14/14
f 21/22/18 22/72/34 24/73/33 23/19/4
f 26/69/37 28/59/32 31/74/40
f 30/75/41 73/76/42 68/77/2 25/78/1
f 10/25/20 6/24/14 27/79/39 29/80/43
f 4/7/7 10/33/20 29/81/43 28/82/32
f 23/4/4 24/83/33 26/84/37 25/1/1
f 32/85/44 75/86/45 73/87/42 30/88/41
f 25/78/1 26/89/37 31/90/40 30/75/41
f 70/70/38 77/91/46 34/92/47 27/71/39
f 29/80/43 27/79/39 34/93/47 36/94/48
f 28/82/32 29/81/43 36/95/48 35/96/49
f 30/88/41 31/97/40 33/98/50 32/85/44
f 37/99/51 80/100/52 75/101/45 32/102/44
f 37/103/51 38/104/53 35/105/49 39/106/54
f 32/102/44 33/107/50 38/108/53 37/99/51
f 39/106/54 82/109/55 80/110/52 37/103/51
f 39/111/54 35/112/49 41/113/56 40/114/57
f 35/96/49 36/95/48 43/115/58 41/116/56
f 42/117/59 85/118/60 83/119/61 40/120/57
f 40/120/57 41/121/56 43/122/58 42/117/59
f 40/114/57 83/123/61 82/124/55 39/111/54
f 84/125/62 78/126/63 35/127/49 41/128/56
f 36/94/48 34/93/47 42/129/59 43/130/58
f 82/131/55 39/132/54 35/133/49 78/134/63
f 67/135/64 65/136/65 22/137/34 24/138/33
f 41/139/56 84/140/62 83/141/61 40/142/57
f 80/143/52 81/144/66 38/145/53 37/146/51
f 76/147/67 33/148/50 38/149/53 81/150/66
f 74/151/68 69/152/69 26/153/37 31/154/40
f 75/155/45 32/156/44 33/157/50 76/158/67
f 73/159/42 74/160/68 31/161/40 30/162/41
f 68/163/2 25/164/1 26/165/37 69/166/69
f 66/167/3 67/168/64 24/169/33 23/170/4
f 64/171/17 21/172/18 22/173/34 65/174/65
f 77/91/46 85/175/60 42/176/59 34/92/47
f 31/74/40 28/59/32 33/177/50
f 33/177/50 28/59/32 35/178/49 38/179/53
f 51/180/70 52/181/71 53/182/72 49/183/13
f 55/184/73 62/185/74 57/186/75 50/5/5
f 45/12/12 52/187/71 51/188/70 44/9/9
f 48/16/16 54/189/76 49/13/13
f 47/8/8 53/190/72 55/184/73 50/5/5
f 52/181/71 55/191/73 53/182/72
f 48/16/16 59/192/77 63/193/78 54/189/76
f 49/183/13 54/194/76 51/180/70
f 60/195/79 63/196/78 59/197/77 58/198/80
f 56/199/81 57/200/75 62/201/74 61/202/82
f 51/188/70 60/203/79 58/204/80 44/9/9
f 54/194/76 63/205/78 60/206/79 51/180/70
f 45/12/12 56/207/81 61/208/82 52/187/71
f 44/9/9 58/209/80 59/210/77 48/17/16
f 52/181/71 61/211/82 62/212/74 55/191/73
f 50/213/5 57/214/75 56/215/81 45/12/12
f 71/216/83 47/217/8 65/218/65 67/219/64
f 46/65/35 64/64/17 65/220/65 47/221/8
f 67/219/64 69/222/69 71/216/83
f 64/21/17 66/20/3 67/223/64 65/224/65
f 69/222/69 74/225/68 71/216/83
f 53/182/72 72/226/84 70/227/38 49/183/13
f 47/8/8 71/228/83 72/229/84 53/190/72
f 66/3/3 68/2/2 69/230/69 67/231/64
f 68/77/2 73/76/42 74/232/68 69/233/69
f 72/226/84 79/234/85 77/235/46 70/227/38
f 71/228/83 78/236/63 79/237/85 72/229/84
f 73/87/42 75/86/45 76/238/67 74/239/68
f 80/110/52 82/109/55 78/240/63 81/241/66
f 75/101/45 80/100/52 81/242/66 76/243/67
f 82/124/55 83/123/61 84/244/62 78/245/63
f 78/236/63 84/246/62 86/247/86 79/237/85
f 83/119/61 85/118/60 86/248/86 84/249/62
f 79/234/85 86/250/86 85/251/60 77/235/46
f 74/225/68 76/252/67 71/216/83
f 76/252/67 81/253/66 78/254/63 71/216/83
f 46/65/35 47/255/8 4/256/7 3/66/36
f 7/56/6 50/213/5 45/12/12 2/11/11
