# Blender v2.79 (sub 0) OBJ File: 'Table.blend'
# www.blender.org
mtllib Table.mtl
o Cube_Cube.002
v 2.012336 2.244009 3.013250
v 2.012336 2.653691 3.013250
v 1.485597 2.244009 2.444975
v 1.485597 1.399733 2.444975
v 1.390304 0.036139 2.868304
v 1.471376 2.248377 2.925008
v 1.390304 0.036139 2.412762
v 1.845846 0.036139 2.868304
v 1.926918 2.248377 2.925008
v 1.845846 0.036139 2.412762
v 1.926918 2.248377 2.469466
v 1.471376 1.369211 2.925008
v 1.926918 1.369211 2.469466
v 1.926918 1.333330 2.925008
v 1.027349 2.123652 2.444975
v 1.027349 1.520090 2.444975
v 1.027349 2.123652 2.559530
v 1.027349 1.520090 2.559530
v 1.485597 1.537678 1.804044
v 1.485597 2.106063 1.804044
v 1.625621 1.537678 1.804044
v 1.625621 2.106063 1.804044
v 1.899952 2.720952 2.844966
v 1.412542 -0.002323 2.846066
v 1.412542 -0.002323 2.435001
v 1.823608 -0.002323 2.846066
v 1.823608 -0.002323 2.435001
v 1.287226 1.399733 2.210003
v 1.287226 1.487260 2.247508
v 0.340393 1.779797 2.734309
v 0.340393 1.885151 2.734309
v 0.228589 1.779797 2.673383
v 0.228589 1.885151 2.673383
v 0.377546 1.782962 2.590106
v 0.234542 1.782962 2.795333
v 0.234542 1.881986 2.795333
v 0.377546 1.881986 2.590106
v 0.229428 1.878821 2.527133
v 0.229428 1.786128 2.527133
v 0.366380 1.878821 2.527133
v 0.366380 1.786128 2.527133
v 1.832788 1.882038 0.326503
v 1.832788 1.776683 0.326503
v 1.771862 1.882037 0.214699
v 1.771862 1.776683 0.214699
v 1.688585 1.878872 0.363656
v 1.893811 1.878872 0.220653
v 1.893811 1.779848 0.220653
v 1.688585 1.779848 0.363656
v 1.586921 1.783014 0.215538
v 1.586921 1.875707 0.215538
v 1.586921 1.783014 0.352490
v 1.586921 1.875707 0.352490
v -2.012336 2.244009 3.013250
v -2.012336 2.653691 3.013250
v 0.000000 2.244009 3.013250
v 0.000000 2.653691 3.013250
v -1.485597 2.244009 2.444975
v 0.000000 2.244009 2.444975
v -1.485597 1.399733 2.444975
v 0.000000 1.399733 2.444975
v -1.390304 0.036139 2.868304
v -1.471376 2.248377 2.925008
v -1.390304 0.036139 2.412762
v -1.845846 0.036139 2.868304
v -1.926918 2.248377 2.925008
v -1.845846 0.036139 2.412762
v -1.926918 2.248377 2.469466
v -1.471376 1.369211 2.925008
v -1.926918 1.369211 2.469466
v -1.926918 1.333330 2.925008
v -1.027349 2.123652 2.444975
v -1.027349 1.520090 2.444975
v 0.000000 2.123652 2.444975
v 0.000000 1.520090 2.444975
v -1.027349 2.123652 2.559530
v -1.027349 1.520090 2.559530
v 0.000000 2.123652 2.559530
v 0.000000 1.520090 2.559530
v -1.485597 1.537678 1.804044
v -1.485597 2.106063 1.804044
v -1.625621 1.537678 1.804044
v -1.625621 2.106063 1.804044
v -1.899952 2.720952 2.844966
v 0.000000 2.720952 2.844966
v -1.412542 -0.002323 2.846066
v -1.412542 -0.002323 2.435001
v -1.823608 -0.002323 2.846066
v -1.823608 -0.002323 2.435001
v 0.000000 1.786128 2.810503
v 0.000000 1.399733 2.210003
v -1.287226 1.399733 2.210003
v 0.000000 1.487260 2.247508
v -1.287226 1.487260 2.247508
v 0.000000 1.878821 2.810503
v 0.000000 1.786128 2.681185
v 0.000000 1.878821 2.681185
v -0.340393 1.779797 2.734309
v -0.340393 1.885151 2.734309
v -0.228589 1.779797 2.673383
v -0.228589 1.885151 2.673383
v -0.377546 1.782962 2.590106
v -0.234542 1.782962 2.795333
v -0.234542 1.881986 2.795333
v -0.377546 1.881986 2.590106
v -0.229428 1.878821 2.527133
v -0.229428 1.786128 2.527133
v -0.366380 1.878821 2.527133
v -0.366380 1.786128 2.527133
v -1.832788 1.882038 0.326503
v -1.832788 1.776683 0.326503
v -1.771862 1.882037 0.214699
v -1.771862 1.776683 0.214699
v -1.688585 1.878872 0.363656
v -1.893811 1.878872 0.220653
v -1.893811 1.779848 0.220653
v -1.688585 1.779848 0.363656
v -1.586921 1.783014 0.215538
v -1.586921 1.875707 0.215538
v -1.586921 1.783014 0.352490
v -1.586921 1.875707 0.352490
v 2.012336 2.244009 -3.013250
v 2.012336 2.653691 -3.013250
v 1.485597 2.244009 0.000000
v 1.485597 2.244009 -2.444975
v 2.012336 2.244009 0.000000
v 2.012336 2.653691 0.000000
v 1.485597 1.399733 0.000000
v 1.485597 1.399733 -2.444975
v 1.390304 0.036139 -2.868304
v 1.471376 2.248377 -2.925008
v 1.390304 0.036139 -2.412762
v 1.845846 0.036139 -2.868304
v 1.926918 2.248377 -2.925008
v 1.845846 0.036139 -2.412762
v 1.926918 2.248377 -2.469466
v 1.471376 1.369211 -2.925008
v 1.926918 1.369211 -2.469466
v 1.926918 1.333330 -2.925008
v 1.027349 2.123652 -2.444975
v 1.027349 1.520090 -2.444975
v 1.027349 2.123652 -2.559530
v 1.027349 1.520090 -2.559530
v 1.485597 1.537678 -1.804044
v 1.485597 1.537678 0.000000
v 1.485597 2.106063 0.000000
v 1.485597 2.106063 -1.804044
v 1.625621 1.537678 -1.804044
v 1.625621 1.537678 0.000000
v 1.625621 2.106063 0.000000
v 1.625621 2.106063 -1.804044
v 1.899952 2.720952 0.000000
v 1.899952 2.720952 -2.844966
v 1.412542 -0.002323 -2.846066
v 1.412542 -0.002323 -2.435001
v 1.823608 -0.002323 -2.846066
v 1.823608 -0.002323 -2.435001
v 1.287226 1.399733 -2.210003
v 1.287226 1.399733 0.000000
v 1.287226 1.487260 -2.247508
v 1.287226 1.487260 0.000000
v 0.340393 1.779797 -2.734309
v 0.340393 1.885151 -2.734309
v 0.228589 1.779797 -2.673383
v 0.228589 1.885151 -2.673383
v 0.377546 1.782962 -2.590106
v 0.234542 1.782962 -2.795333
v 0.234542 1.881986 -2.795333
v 0.377546 1.881986 -2.590106
v 0.229428 1.878821 -2.527133
v 0.229428 1.786128 -2.527133
v 0.366380 1.878821 -2.527133
v 0.366380 1.786128 -2.527133
v 1.908981 1.875707 0.000000
v 1.908981 1.783014 0.000000
v 1.779664 1.875707 0.000000
v 1.779664 1.783014 0.000000
v 1.832788 1.882038 -0.326503
v 1.832788 1.776683 -0.326503
v 1.771862 1.882037 -0.214699
v 1.771862 1.776683 -0.214699
v 1.688585 1.878872 -0.363656
v 1.893811 1.878872 -0.220653
v 1.893811 1.779848 -0.220653
v 1.688585 1.779848 -0.363656
v 1.586921 1.783014 -0.215538
v 1.586921 1.875707 -0.215538
v 1.586921 1.783014 -0.352490
v 1.586921 1.875707 -0.352490
v -2.012336 2.244009 -3.013250
v -2.012336 2.653691 -3.013250
v -1.485597 2.244009 0.000000
v 0.000000 2.244009 -3.013250
v 0.000000 2.653691 -3.013250
v -1.485597 2.244009 -2.444975
v 0.000000 2.244009 -2.444975
v -2.012336 2.244009 0.000000
v -2.012336 2.653691 0.000000
v -1.485597 1.399733 0.000000
v 0.000000 1.487260 0.000000
v -1.485597 1.399733 -2.444975
v 0.000000 1.399733 -2.444975
v -1.390304 0.036139 -2.868304
v -1.471376 2.248377 -2.925008
v -1.390304 0.036139 -2.412762
v -1.845846 0.036139 -2.868304
v -1.926918 2.248377 -2.925008
v -1.845846 0.036139 -2.412762
v -1.926918 2.248377 -2.469466
v -1.471376 1.369211 -2.925008
v -1.926918 1.369211 -2.469466
v -1.926918 1.333330 -2.925008
v -1.027349 2.123652 -2.444975
v -1.027349 1.520090 -2.444975
v 0.000000 2.123652 -2.444975
v 0.000000 1.520090 -2.444975
v -1.027349 2.123652 -2.559530
v -1.027349 1.520090 -2.559530
v 0.000000 2.123652 -2.559530
v 0.000000 1.520090 -2.559530
v -1.485597 1.537678 -1.804044
v -1.485597 1.537678 0.000000
v -1.485597 2.106063 0.000000
v -1.485597 2.106063 -1.804044
v -1.625621 1.537678 -1.804044
v -1.625621 1.537678 0.000000
v -1.625621 2.106063 0.000000
v -1.625621 2.106063 -1.804044
v -1.899952 2.720952 0.000000
v -1.899952 2.720952 -2.844966
v 0.000000 2.720952 -2.844966
v 0.000000 2.720952 0.000000
v -1.412542 -0.002323 -2.846066
v -1.412542 -0.002323 -2.435001
v -1.823608 -0.002323 -2.846066
v -1.823608 -0.002323 -2.435001
v 0.000000 1.786128 -2.810503
v 0.000000 1.399733 -2.210003
v -1.287226 1.399733 -2.210003
v -1.287226 1.399733 0.000000
v 0.000000 1.487260 -2.247508
v -1.287226 1.487260 -2.247508
v -1.287226 1.487260 0.000000
v 0.000000 1.878821 -2.810503
v 0.000000 1.786128 -2.681185
v 0.000000 1.878821 -2.681185
v -0.340393 1.779797 -2.734309
v -0.340393 1.885151 -2.734309
v -0.228589 1.779797 -2.673383
v -0.228589 1.885151 -2.673383
v -0.377546 1.782962 -2.590106
v -0.234542 1.782962 -2.795333
v -0.234542 1.881986 -2.795333
v -0.377546 1.881986 -2.590106
v -0.229428 1.878821 -2.527133
v -0.229428 1.786128 -2.527133
v -0.366380 1.878821 -2.527133
v -0.366380 1.786128 -2.527133
v -1.908981 1.875707 0.000000
v -1.908981 1.783014 0.000000
v -1.779664 1.875707 0.000000
v -1.779664 1.783014 0.000000
v -1.832788 1.882038 -0.326503
v -1.832788 1.776683 -0.326503
v -1.771862 1.882037 -0.214699
v -1.771862 1.776683 -0.214699
v -1.688585 1.878872 -0.363656
v -1.893811 1.878872 -0.220653
v -1.893811 1.779848 -0.220653
v -1.688585 1.779848 -0.363656
v -1.586921 1.783014 -0.215538
v -1.586921 1.875707 -0.215538
v -1.586921 1.783014 -0.352490
v -1.586921 1.875707 -0.352490
vn 0.7082 -0.7059 0.0000
vn 0.8699 0.4932 0.0000
vn 0.6126 0.4844 0.6246
vn 0.5725 -0.5870 0.5724
vn 0.0000 -0.7063 0.7078
vn -0.3011 -0.9156 0.2665
vn 0.2824 -0.9165 0.2834
vn 0.0000 0.5607 0.8280
vn 0.2170 0.9668 0.1345
vn 0.0000 0.9820 0.1890
vn 0.0000 -0.7071 0.7071
vn -0.5475 -0.5356 -0.6429
vn 0.3015 -0.3015 0.9045
vn 0.2933 -0.9066 -0.3034
vn 0.7071 -0.7071 0.0000
vn -0.4142 -0.8583 -0.3027
vn -0.7071 -0.7071 0.0000
vn 0.9045 -0.3015 0.3015
vn -0.7029 0.0086 0.7112
vn 0.0280 -0.9995 -0.0146
vn 0.7321 -0.0100 -0.6811
vn 0.7087 -0.0382 0.7045
vn 0.3015 0.3015 0.9045
vn 0.0000 0.7071 0.7071
vn 0.5773 0.5773 0.5773
vn 0.7087 -0.7055 0.0000
vn 0.6648 -0.3308 0.6698
vn -0.6937 -0.2879 0.6601
vn 0.6657 -0.3029 -0.6820
vn -0.6792 -0.2650 -0.6844
vn 0.0000 -0.7056 0.7086
vn 0.5773 -0.5773 0.5773
vn 0.7071 0.7071 0.0000
vn 0.9045 0.3015 0.3015
vn 0.2664 0.9638 0.0000
vn 0.0000 1.0000 0.0000
vn 0.5474 -0.6330 0.5474
vn 0.5474 -0.6330 -0.5474
vn -0.5474 -0.6330 -0.5474
vn -0.5474 -0.6330 0.5474
vn 0.0000 -0.5505 -0.8348
vn -0.5590 -0.4565 -0.6922
vn 0.0000 -1.0000 0.0000
vn 0.2073 -0.6536 0.7279
vn -0.3120 -0.9005 -0.3028
vn 0.6149 -0.6350 0.4675
vn 0.0000 -0.7132 -0.7009
vn 0.0000 0.7132 -0.7009
vn -0.3120 0.9005 -0.3028
vn 0.7466 0.6652 0.0073
vn 0.6149 0.6350 0.4675
vn 0.2073 0.6536 0.7279
vn 0.0000 -0.6852 0.7284
vn 0.7466 -0.6652 0.0073
vn 0.0000 0.6852 0.7284
vn -0.7160 0.6972 -0.0356
vn -0.7160 -0.6972 -0.0356
vn 0.6662 0.7302 -0.1515
vn 0.6662 -0.7302 -0.1515
vn 0.7272 0.6541 0.2081
vn -0.2998 0.9008 -0.3142
vn 0.4675 0.6350 0.6149
vn -0.7007 0.7134 0.0000
vn -0.7007 -0.7134 0.0000
vn -0.2998 -0.9008 -0.3142
vn 0.0356 -0.6690 0.7424
vn 0.4675 -0.6350 0.6149
vn 0.7272 -0.6541 0.2081
vn 0.7294 0.6841 0.0000
vn 0.0356 0.6690 0.7424
vn 0.7294 -0.6841 0.0000
vn -0.0265 -0.7005 -0.7131
vn -0.0265 0.7005 -0.7131
vn -0.0991 -0.7216 0.6852
vn -0.0991 0.7216 0.6852
vn -0.7082 -0.7059 0.0000
vn -0.5725 -0.5870 0.5724
vn -0.6126 0.4844 0.6246
vn -0.8699 0.4932 0.0000
vn -0.2824 -0.9165 0.2834
vn 0.3011 -0.9156 0.2665
vn -0.2170 0.9668 0.1345
vn -0.3015 -0.3015 0.9045
vn 0.5475 -0.5356 -0.6429
vn -0.2933 -0.9066 -0.3034
vn 0.4142 -0.8583 -0.3027
vn -0.9045 -0.3015 0.3015
vn 0.7029 0.0086 0.7112
vn -0.0280 -0.9995 -0.0146
vn -0.7321 -0.0100 -0.6811
vn -0.7087 -0.0382 0.7045
vn -0.3015 0.3015 0.9045
vn -0.5773 0.5773 0.5773
vn -0.7087 -0.7055 0.0000
vn -0.6648 -0.3308 0.6698
vn 0.6937 -0.2879 0.6601
vn -0.6657 -0.3029 -0.6820
vn 0.6792 -0.2650 -0.6844
vn -0.5773 -0.5773 0.5773
vn -0.7071 0.7071 0.0000
vn -0.9045 0.3015 0.3015
vn -0.2664 0.9638 0.0000
vn 0.5590 -0.4565 -0.6922
vn -0.2073 -0.6536 0.7279
vn -0.6149 -0.6350 0.4675
vn 0.3120 -0.9005 -0.3028
vn 0.3120 0.9005 -0.3028
vn -0.7466 0.6652 0.0073
vn -0.6149 0.6350 0.4675
vn -0.2073 0.6536 0.7279
vn -0.7466 -0.6652 0.0073
vn 0.7160 -0.6972 -0.0356
vn 0.7160 0.6972 -0.0356
vn -0.6662 0.7302 -0.1515
vn -0.6662 -0.7302 -0.1515
vn -0.7272 0.6541 0.2081
vn -0.4675 0.6350 0.6149
vn 0.2998 0.9008 -0.3142
vn 0.7007 0.7134 0.0000
vn 0.2998 -0.9008 -0.3142
vn 0.7007 -0.7134 0.0000
vn -0.0356 -0.6690 0.7424
vn -0.4675 -0.6350 0.6149
vn -0.7272 -0.6541 0.2081
vn -0.7294 0.6841 0.0000
vn -0.0356 0.6690 0.7424
vn -0.7294 -0.6841 0.0000
vn 0.0265 0.7005 -0.7131
vn 0.0265 -0.7005 -0.7131
vn 0.0991 -0.7216 0.6852
vn 0.0991 0.7216 0.6852
vn 0.5725 -0.5870 -0.5724
vn 0.6126 0.4844 -0.6246
vn 0.0000 -0.7063 -0.7078
vn 0.2824 -0.9165 -0.2834
vn -0.3011 -0.9156 -0.2665
vn 0.0000 0.5607 -0.8280
vn 0.0000 0.9820 -0.1890
vn 0.2170 0.9668 -0.1345
vn 0.0000 -0.7071 -0.7071
vn 0.3015 -0.3015 -0.9045
vn -0.5475 -0.5356 0.6429
vn 0.2933 -0.9066 0.3034
vn -0.4142 -0.8583 0.3027
vn 0.9045 -0.3015 -0.3015
vn -0.7029 0.0086 -0.7112
vn 0.0280 -0.9995 0.0146
vn 0.7321 -0.0100 0.6811
vn 0.7087 -0.0382 -0.7045
vn 0.3015 0.3015 -0.9045
vn 0.5773 0.5773 -0.5773
vn 0.0000 0.7071 -0.7071
vn 0.6648 -0.3308 -0.6698
vn -0.6937 -0.2879 -0.6601
vn 0.6657 -0.3029 0.6820
vn -0.6792 -0.2650 0.6844
vn 0.0000 -0.7056 -0.7086
vn 0.5773 -0.5773 -0.5773
vn 0.9045 0.3015 -0.3015
vn -0.5590 -0.4565 0.6922
vn 0.0000 -0.5505 0.8348
vn 0.2073 -0.6536 -0.7279
vn 0.6149 -0.6350 -0.4675
vn -0.3120 -0.9005 0.3028
vn 0.0000 -0.7132 0.7009
vn -0.3120 0.9005 0.3028
vn 0.0000 0.7132 0.7009
vn 0.7466 0.6652 -0.0073
vn 0.6149 0.6350 -0.4675
vn 0.2073 0.6536 -0.7279
vn 0.0000 -0.6852 -0.7284
vn 0.7466 -0.6652 -0.0073
vn 0.0000 0.6852 -0.7284
vn -0.7160 -0.6972 0.0356
vn -0.7160 0.6972 0.0356
vn 0.6662 0.7302 0.1515
vn 0.6662 -0.7302 0.1515
vn 0.7272 0.6541 -0.2081
vn 0.4675 0.6350 -0.6149
vn -0.2998 0.9008 0.3142
vn -0.2998 -0.9008 0.3142
vn 0.0356 -0.6690 -0.7424
vn 0.4675 -0.6350 -0.6149
vn 0.7272 -0.6541 -0.2081
vn 0.0356 0.6690 -0.7424
vn -0.0265 0.7005 0.7131
vn -0.0265 -0.7005 0.7131
vn -0.0991 -0.7216 -0.6852
vn -0.0991 0.7216 -0.6852
vn -0.6126 0.4844 -0.6246
vn -0.5725 -0.5870 -0.5724
vn 0.3011 -0.9156 -0.2665
vn -0.2824 -0.9165 -0.2834
vn -0.2170 0.9668 -0.1345
vn 0.5475 -0.5356 0.6429
vn -0.3015 -0.3015 -0.9045
vn -0.2933 -0.9066 0.3034
vn 0.4142 -0.8583 0.3027
vn -0.9045 -0.3015 -0.3015
vn 0.7029 0.0086 -0.7112
vn -0.0280 -0.9995 0.0146
vn -0.7321 -0.0100 0.6811
vn -0.7087 -0.0382 -0.7045
vn -0.3015 0.3015 -0.9045
vn -0.5773 0.5773 -0.5773
vn -0.6648 -0.3308 -0.6698
vn 0.6937 -0.2879 -0.6601
vn -0.6657 -0.3029 0.6820
vn 0.6792 -0.2650 0.6844
vn -0.5773 -0.5773 -0.5773
vn -0.9045 0.3015 -0.3015
vn 0.5590 -0.4565 0.6922
vn -0.2073 -0.6536 -0.7279
vn 0.3120 -0.9005 0.3028
vn -0.6149 -0.6350 -0.4675
vn 0.3120 0.9005 0.3028
vn -0.7466 0.6652 -0.0073
vn -0.6149 0.6350 -0.4675
vn -0.2073 0.6536 -0.7279
vn -0.7466 -0.6652 -0.0073
vn 0.7160 0.6972 0.0356
vn 0.7160 -0.6972 0.0356
vn -0.6662 0.7302 0.1515
vn -0.6662 -0.7302 0.1515
vn -0.7272 0.6541 -0.2081
vn 0.2998 0.9008 0.3142
vn -0.4675 0.6350 -0.6149
vn 0.2998 -0.9008 0.3142
vn -0.0356 -0.6690 -0.7424
vn -0.4675 -0.6350 -0.6149
vn -0.7272 -0.6541 -0.2081
vn -0.0356 0.6690 -0.7424
vn 0.0265 -0.7005 0.7131
vn 0.0265 0.7005 0.7131
vn 0.0991 -0.7216 -0.6852
vn 0.0991 0.7216 -0.6852
usemtl None
s 1
f 126//1 127//2 2//3 1//4
f 56//5 6//6 9//7 1//4
f 57//8 2//3 23//9 85//10
f 1//4 2//3 57//8 56//5
f 61//11 4//12 16//13 75//11
f 1//4 9//7 11//14 126//1
f 128//15 4//12 28//16 159//17
f 4//12 128//15 145//15 19//18
f 12//19 6//6 3//20 4//12
f 4//12 3//20 11//14 13//21
f 13//21 11//14 9//7 14//22
f 14//22 9//7 6//6 12//19
f 15//23 74//24 78//24 17//25
f 124//26 126//1 11//14 3//20
f 8//27 14//22 12//19 5//28
f 10//29 13//21 14//22 8//27
f 7//30 4//12 13//21 10//29
f 5//28 12//19 4//12 7//30
f 59//31 3//20 6//6 56//5
f 4//12 3//20 15//23 16//13
f 3//20 59//31 74//24 15//23
f 17//25 78//24 79//11 18//32
f 16//13 15//23 17//25 18//32
f 75//11 16//13 18//32 79//11
f 146//33 20//34 22//25 150//33
f 3//20 4//12 19//18 20//34
f 124//26 3//20 20//34 146//33
f 150//33 22//25 21//32 149//15
f 19//18 145//15 149//15 21//32
f 20//34 19//18 21//32 22//25
f 152//35 232//36 85//10 23//9
f 2//3 127//2 152//35 23//9
f 10//29 8//27 26//37 27//38
f 7//30 10//29 27//38 25//39
f 5//28 7//30 25//39 24//40
f 8//27 5//28 24//40 26//37
f 28//16 91//41 93//41 29//42
f 4//12 61//11 91//41 28//16
f 200//43 161//17 29//42 93//41
f 159//17 28//16 29//42 161//17
f 35//44 32//45 30//46
f 96//47 97//48 33//49 32//45
f 37//50 33//49 31//51
f 30//46 31//51 36//52 35//44
f 96//47 32//45 35//44 90//53
f 33//49 36//52 31//51
f 31//51 30//46 34//54 37//50
f 35//44 36//52 95//55 90//53
f 36//52 33//49 97//48 95//55
f 32//45 33//49 38//56 39//57
f 33//49 37//50 40//58 38//56
f 30//46 32//45 34//54
f 34//54 32//45 39//57 41//59
f 37//50 34//54 41//59 40//58
f 47//60 44//61 42//62
f 176//63 177//64 45//65 44//61
f 49//66 45//65 43//67
f 42//62 43//67 48//68 47//60
f 176//63 44//61 47//60 174//69
f 45//65 48//68 43//67
f 43//67 42//62 46//70 49//66
f 47//60 48//68 175//71 174//69
f 48//68 45//65 177//64 175//71
f 44//61 45//65 50//72 51//73
f 45//65 49//66 52//74 50//72
f 42//62 44//61 46//70
f 46//70 44//61 51//73 53//75
f 49//66 46//70 53//75 52//74
f 197//76 54//77 55//78 198//79
f 56//5 54//77 66//80 63//81
f 57//8 85//10 84//82 55//78
f 54//77 56//5 57//8 55//78
f 61//11 75//11 73//83 60//84
f 54//77 197//76 68//85 66//80
f 199//17 240//15 92//86 60//84
f 60//84 80//87 222//17 199//17
f 69//88 60//84 58//89 63//81
f 60//84 70//90 68//85 58//89
f 70//90 71//91 66//80 68//85
f 71//91 69//88 63//81 66//80
f 72//92 76//93 78//24 74//24
f 192//94 58//89 68//85 197//76
f 65//95 62//96 69//88 71//91
f 67//97 65//95 71//91 70//90
f 64//98 67//97 70//90 60//84
f 62//96 64//98 60//84 69//88
f 59//31 56//5 63//81 58//89
f 60//84 73//83 72//92 58//89
f 58//89 72//92 74//24 59//31
f 76//93 77//99 79//11 78//24
f 73//83 77//99 76//93 72//92
f 75//11 79//11 77//99 73//83
f 223//100 227//100 83//93 81//101
f 58//89 81//101 80//87 60//84
f 192//94 223//100 81//101 58//89
f 227//100 226//17 82//99 83//93
f 80//87 82//99 226//17 222//17
f 81//101 83//93 82//99 80//87
f 229//102 84//82 85//10 232//36
f 55//78 84//82 229//102 198//79
f 67//97 89//39 88//40 65//95
f 64//98 87//38 89//39 67//97
f 62//96 86//37 87//38 64//98
f 65//95 88//40 86//37 62//96
f 92//86 94//103 93//41 91//41
f 60//84 92//86 91//41 61//11
f 200//43 93//41 94//103 243//15
f 240//15 243//15 94//103 92//86
f 103//104 98//105 100//106
f 96//47 100//106 101//107 97//48
f 105//108 99//109 101//107
f 98//105 103//104 104//110 99//109
f 96//47 90//53 103//104 100//106
f 101//107 99//109 104//110
f 99//109 105//108 102//111 98//105
f 103//104 90//53 95//55 104//110
f 104//110 95//55 97//48 101//107
f 100//106 107//112 106//113 101//107
f 101//107 106//113 108//114 105//108
f 98//105 102//111 100//106
f 102//111 109//115 107//112 100//106
f 105//108 108//114 109//115 102//111
f 115//116 110//117 112//118
f 261//119 112//118 113//120 262//121
f 117//122 111//123 113//120
f 110//117 115//116 116//124 111//123
f 261//119 259//125 115//116 112//118
f 113//120 111//123 116//124
f 111//123 117//122 114//126 110//117
f 115//116 259//125 260//127 116//124
f 116//124 260//127 262//121 113//120
f 112//118 119//128 118//129 113//120
f 113//120 118//129 120//130 117//122
f 110//117 114//126 112//118
f 114//126 121//131 119//128 112//118
f 117//122 120//130 121//131 114//126
f 126//1 122//132 123//133 127//2
f 193//134 122//132 134//135 131//136
f 194//137 231//138 153//139 123//133
f 122//132 193//134 194//137 123//133
f 202//140 216//140 141//141 129//142
f 122//132 126//1 136//143 134//135
f 128//15 159//17 158//144 129//142
f 129//142 144//145 145//15 128//15
f 137//146 129//142 125//147 131//136
f 129//142 138//148 136//143 125//147
f 138//148 139//149 134//135 136//143
f 139//149 137//146 131//136 134//135
f 140//150 142//151 219//152 215//152
f 124//26 125//147 136//143 126//1
f 133//153 130//154 137//146 139//149
f 135//155 133//153 139//149 138//148
f 132//156 135//155 138//148 129//142
f 130//154 132//156 129//142 137//146
f 196//157 193//134 131//136 125//147
f 129//142 141//141 140//150 125//147
f 125//147 140//150 215//152 196//157
f 142//151 143//158 220//140 219//152
f 141//141 143//158 142//151 140//150
f 216//140 220//140 143//158 141//141
f 146//33 150//33 151//151 147//159
f 125//147 147//159 144//145 129//142
f 124//26 146//33 147//159 125//147
f 150//33 149//15 148//158 151//151
f 144//145 148//158 149//15 145//15
f 147//159 151//151 148//158 144//145
f 152//35 153//139 231//138 232//36
f 123//133 153//139 152//35 127//2
f 135//155 157//37 156//38 133//153
f 132//156 155//40 157//37 135//155
f 130//154 154//39 155//40 132//156
f 133//153 156//38 154//39 130//154
f 158//144 160//160 241//161 238//161
f 129//142 158//144 238//161 202//140
f 200//43 241//161 160//160 161//17
f 159//17 161//17 160//160 158//144
f 167//162 162//163 164//164
f 245//165 164//164 165//166 246//167
f 169//168 163//169 165//166
f 162//163 167//162 168//170 163//169
f 245//165 237//171 167//162 164//164
f 165//166 163//169 168//170
f 163//169 169//168 166//172 162//163
f 167//162 237//171 244//173 168//170
f 168//170 244//173 246//167 165//166
f 164//164 171//174 170//175 165//166
f 165//166 170//175 172//176 169//168
f 162//163 166//172 164//164
f 166//172 173//177 171//174 164//164
f 169//168 172//176 173//177 166//172
f 183//178 178//179 180//180
f 176//63 180//180 181//181 177//64
f 185//182 179//183 181//181
f 178//179 183//178 184//184 179//183
f 176//63 174//69 183//178 180//180
f 181//181 179//183 184//184
f 179//183 185//182 182//185 178//179
f 183//178 174//69 175//71 184//184
f 184//184 175//71 177//64 181//181
f 180//180 187//186 186//187 181//181
f 181//181 186//187 188//188 185//182
f 178//179 182//185 180//180
f 182//185 189//189 187//186 180//180
f 185//182 188//188 189//189 182//185
f 197//76 198//79 191//190 190//191
f 193//134 204//192 207//193 190//191
f 194//137 191//190 230//194 231//138
f 190//191 191//190 194//137 193//134
f 202//140 201//195 214//196 216//140
f 190//191 207//193 209//197 197//76
f 199//17 201//195 239//198 240//15
f 201//195 199//17 222//17 221//199
f 210//200 204//192 195//201 201//195
f 201//195 195//201 209//197 211//202
f 211//202 209//197 207//193 212//203
f 212//203 207//193 204//192 210//200
f 213//204 215//152 219//152 217//205
f 192//94 197//76 209//197 195//201
f 206//206 212//203 210//200 203//207
f 208//208 211//202 212//203 206//206
f 205//209 201//195 211//202 208//208
f 203//207 210//200 201//195 205//209
f 196//157 195//201 204//192 193//134
f 201//195 195//201 213//204 214//196
f 195//201 196//157 215//152 213//204
f 217//205 219//152 220//140 218//210
f 214//196 213//204 217//205 218//210
f 216//140 214//196 218//210 220//140
f 223//100 224//211 228//205 227//100
f 195//201 201//195 221//199 224//211
f 192//94 195//201 224//211 223//100
f 227//100 228//205 225//210 226//17
f 221//199 222//17 226//17 225//210
f 224//211 221//199 225//210 228//205
f 229//102 232//36 231//138 230//194
f 191//190 198//79 229//102 230//194
f 208//208 206//206 235//39 236//40
f 205//209 208//208 236//40 234//37
f 203//207 205//209 234//37 233//38
f 206//206 203//207 233//38 235//39
f 239//198 238//161 241//161 242//212
f 201//195 202//140 238//161 239//198
f 200//43 243//15 242//212 241//161
f 240//15 239//198 242//212 243//15
f 252//213 249//214 247//215
f 245//165 246//167 250//216 249//214
f 254//217 250//216 248//218
f 247//215 248//218 253//219 252//213
f 245//165 249//214 252//213 237//171
f 250//216 253//219 248//218
f 248//218 247//215 251//220 254//217
f 252//213 253//219 244//173 237//171
f 253//219 250//216 246//167 244//173
f 249//214 250//216 255//221 256//222
f 250//216 254//217 257//223 255//221
f 247//215 249//214 251//220
f 251//220 249//214 256//222 258//224
f 254//217 251//220 258//224 257//223
f 268//225 265//226 263//227
f 261//119 262//121 266//228 265//226
f 270//229 266//228 264//230
f 263//227 264//230 269//231 268//225
f 261//119 265//226 268//225 259//125
f 266//228 269//231 264//230
f 264//230 263//227 267//232 270//229
f 268//225 269//231 260//127 259//125
f 269//231 266//228 262//121 260//127
f 265//226 266//228 271//233 272//234
f 266//228 270//229 273//235 271//233
f 263//227 265//226 267//232
f 267//232 265//226 272//234 274//236
f 270//229 267//232 274//236 273//235
