# Blender v2.79 (sub 0) OBJ File: 'TVStand.blend'
# www.blender.org
mtllib TVStand.mtl
o Cube
v 1.535026 1.169066 3.639040
v 1.561792 -0.006142 3.770651
v 1.535026 1.169066 4.328829
v 1.561792 -0.006142 4.370932
v 0.839410 1.169066 3.639040
v 1.056568 -0.006142 3.770651
v 0.839410 1.169066 4.328829
v 1.056568 -0.006142 4.370932
v -1.986884 1.169066 3.639040
v -2.013651 -0.006142 3.770651
v -1.986884 1.169066 4.328829
v -2.013651 -0.006142 4.370932
v -1.291269 1.169066 3.639040
v -1.508427 -0.006142 3.770651
v -1.291269 1.169066 4.328829
v -1.508427 -0.006142 4.370932
v 1.535026 1.169066 -3.639040
v 1.561792 -0.006142 -3.770651
v 1.535026 1.169066 -4.328829
v 1.561792 -0.006142 -4.370932
v 0.839410 1.169066 -3.639040
v 1.056568 -0.006142 -3.770651
v 0.839410 1.169066 -4.328829
v 1.056568 -0.006142 -4.370932
v -1.986884 1.169066 -3.639040
v -2.013651 -0.006142 -3.770651
v -1.986884 1.169066 -4.328829
v -2.013651 -0.006142 -4.370932
v -1.291269 1.169066 -3.639040
v -1.508427 -0.006142 -3.770651
v -1.291269 1.169066 -4.328829
v -1.508427 -0.006142 -4.370932
v -2.106149 1.181283 4.464713
v -2.106149 1.181283 -4.464713
v 1.654291 1.181283 4.464713
v 1.654291 1.181283 -4.464713
v -2.106149 3.548179 4.464713
v -2.106149 3.548179 -4.464713
v 1.654291 3.548179 4.464713
v 1.654291 3.548179 -4.464713
v 1.654291 2.744619 -4.464713
v 1.654291 2.744619 4.464713
v 1.654291 2.208913 4.464713
v 1.654291 2.208913 -4.464713
v 1.654291 3.247946 4.425691
v 1.654291 3.247946 -4.425691
v 1.654291 2.776999 4.425691
v 1.654291 2.776999 -4.425691
v 1.654291 2.712240 4.425691
v 1.654291 2.241293 4.425691
v 1.654291 2.712240 -4.425691
v 1.654291 2.241293 -4.425691
v 1.654291 1.705586 -4.425691
v 1.654291 1.705586 4.425691
v 1.654291 2.176533 -4.425691
v 1.654291 2.176533 4.425691
v 1.707199 3.247946 4.425691
v 1.707199 3.247946 -4.425691
v 1.707199 2.776999 4.425691
v 1.707199 2.776999 -4.425691
v 1.707199 2.712240 4.425691
v 1.707199 2.241293 4.425691
v 1.707199 2.712240 -4.425691
v 1.707199 2.241293 -4.425691
v 1.707199 1.705586 -4.425691
v 1.707199 1.705586 4.425691
v 1.707199 2.176533 -4.425691
v 1.707199 2.176533 4.425691
v -1.721933 1.181283 -3.552366
v -1.721933 1.181283 3.552366
v 1.270075 1.181283 -3.552366
v 1.270075 1.181283 3.552366
v -1.721933 1.335593 -3.552366
v -1.721933 1.335593 3.552366
v 1.270075 1.335593 -3.552366
v 1.270075 1.335593 3.552366
v 1.621695 2.958716 0.712985
v 1.621695 3.105412 0.712985
v 2.004879 2.958716 0.446067
v 1.621695 3.105412 -0.712985
v 2.004879 2.958716 -0.446067
v 2.004879 3.105412 0.446067
v 1.621695 2.958716 -0.712985
v 2.004879 3.105412 -0.446067
v 1.620915 3.105412 0.588933
v 1.620915 3.105412 -0.588933
v 1.836628 3.105412 -0.368456
v 1.836628 3.105412 0.368456
v 1.620915 2.958716 -0.588933
v 1.836628 2.958716 -0.368456
v 1.836628 2.958716 0.368456
v 1.620915 2.958716 0.588933
v 1.621695 2.399802 0.712985
v 1.621695 2.546499 0.712985
v 2.004879 2.399802 0.446067
v 1.621695 2.546499 -0.712985
v 2.004879 2.399802 -0.446067
v 2.004879 2.546499 0.446067
v 1.621695 2.399802 -0.712985
v 2.004879 2.546499 -0.446067
v 1.620915 2.546499 0.588933
v 1.620915 2.546499 -0.588933
v 1.836628 2.546499 -0.368456
v 1.836628 2.546499 0.368456
v 1.620915 2.399802 -0.588933
v 1.836628 2.399802 -0.368456
v 1.836628 2.399802 0.368456
v 1.620915 2.399802 0.588933
v 1.621695 1.858886 0.712985
v 1.621695 2.005583 0.712985
v 2.004879 1.858886 0.446067
v 1.621695 2.005583 -0.712985
v 2.004879 1.858886 -0.446067
v 2.004879 2.005583 0.446067
v 1.621695 1.858886 -0.712985
v 2.004879 2.005583 -0.446067
v 1.620915 2.005583 0.588933
v 1.620915 2.005583 -0.588933
v 1.836628 2.005583 -0.368456
v 1.836628 2.005583 0.368456
v 1.620915 1.858886 -0.588933
v 1.836628 1.858886 -0.368456
v 1.836628 1.858886 0.368456
v 1.620915 1.858886 0.588933
vn 0.7095 0.0414 0.7035
vn -0.6500 -0.0931 0.7542
vn 0.7036 0.0414 0.7093
vn 0.7366 -0.0587 -0.6738
vn -0.6738 -0.2040 -0.7101
vn 0.6760 -0.0668 -0.7338
vn -0.7463 -0.1144 0.6556
vn 0.6500 -0.0931 0.7542
vn -0.7095 0.0414 0.7035
vn -0.7036 0.0414 0.7093
vn -0.7366 -0.0587 -0.6738
vn -0.6760 -0.0668 -0.7338
vn 0.6738 -0.2040 -0.7101
vn 0.7056 -0.2063 -0.6779
vn 0.7463 -0.1144 0.6556
vn -0.6500 -0.0931 -0.7542
vn 0.7095 0.0414 -0.7035
vn 0.7036 0.0414 -0.7093
vn 0.7366 -0.0587 0.6738
vn 0.6760 -0.0668 0.7338
vn -0.6738 -0.2040 0.7101
vn -0.7056 -0.2063 0.6779
vn -0.7463 -0.1144 -0.6556
vn -0.7095 0.0414 -0.7035
vn 0.6500 -0.0931 -0.7542
vn -0.7036 0.0414 -0.7093
vn -0.7366 -0.0587 0.6738
vn 0.6738 -0.2040 0.7101
vn -0.6760 -0.0668 0.7338
vn 0.7463 -0.1144 -0.6556
vn -0.5773 0.5773 -0.5773
vn 0.7071 0.0000 -0.7071
vn 0.9045 -0.3015 -0.3015
vn 0.5773 -0.5773 -0.5773
vn 0.7071 0.0000 0.7071
vn -0.5773 0.5773 0.5773
vn -0.5773 -0.5773 0.5773
vn -0.3015 -0.9045 -0.3015
vn 0.5773 -0.5773 0.5773
vn 0.5773 0.5773 0.5773
vn 0.5773 0.5773 -0.5773
vn -0.5773 -0.5773 -0.5773
vn 0.9045 0.3015 0.3015
vn 0.9045 -0.3015 0.3015
vn 0.9045 0.3015 -0.3015
vn 0.3015 -0.9045 -0.3015
vn 0.3015 -0.9045 0.3015
vn -0.3015 -0.9045 0.3015
vn 0.6981 -0.6163 -0.3645
vn 0.4865 0.5249 -0.6984
vn 0.6981 0.6163 -0.3645
vn 0.4865 -0.5249 0.6984
vn 0.6981 0.6163 0.3645
vn 0.4865 0.5249 0.6984
vn -0.3959 -0.8325 0.3874
vn -0.5521 0.8027 0.2252
vn -0.3959 0.8325 0.3874
vn -0.5521 -0.8027 -0.2252
vn 0.6981 -0.6163 0.3645
vn 0.4865 -0.5249 -0.6984
vn -0.3959 -0.8325 -0.3874
vn -0.3959 0.8325 -0.3874
vn -0.5521 0.8027 -0.2252
vn -0.5521 -0.8027 0.2252
vn -0.7056 -0.2063 -0.6779
vn 0.7056 -0.2063 0.6779
usemtl Material
s 1
f 3//1 8//2 4//3
f 2//4 3//1 4//3
f 6//5 1//6 2//4
f 7//7 6//5 8//2
f 16//8 11//9 12//10
f 10//11 11//9 9//12
f 14//13 9//12 13//14
f 14//13 15//15 16//8
f 24//16 19//17 20//18
f 18//19 19//17 17//20
f 22//21 17//20 21//22
f 22//21 23//23 24//16
f 27//24 32//25 28//26
f 26//27 27//24 28//26
f 30//28 25//29 26//27
f 31//30 30//28 32//25
f 38//31 41//32 44//32
f 44//32 53//33 36//34
f 42//35 37//36 43//35
f 33//37 72//38 35//39
f 38//31 39//40 40//41
f 37//36 34//42 33//37
f 42//35 45//43 39//40
f 44//32 50//44 43//35
f 55//45 65//34 53//33
f 39//40 46//45 40//41
f 41//32 46//45 48//33
f 41//32 47//44 42//35
f 49//43 63//41 51//45
f 41//32 52//33 44//32
f 42//35 51//45 41//32
f 43//35 49//43 42//35
f 48//33 59//39 47//44
f 43//35 55//45 44//32
f 43//35 54//44 56//43
f 36//34 54//44 35//39
f 60//34 57//40 59//39
f 64//34 61//40 62//39
f 68//40 65//34 67//41
f 45//43 58//41 46//45
f 52//33 62//39 50//44
f 54//44 68//40 56//43
f 47//44 57//40 45//43
f 50//44 61//40 49//43
f 56//43 67//41 55//45
f 46//45 60//34 48//33
f 51//45 64//34 52//33
f 53//33 66//39 54//44
f 70//46 76//42 72//38
f 36//34 69//47 34//42
f 35//39 71//48 36//34
f 34//42 70//46 33//37
f 75//37 74//34 73//39
f 71//48 73//39 69//47
f 72//38 75//37 71//48
f 69//47 74//34 70//46
f 81//49 80//50 84//51
f 77//52 82//53 78//54
f 89//55 87//56 86//57
f 91//58 81//49 79//59
f 81//49 89//55 83//60
f 92//61 79//59 77//52
f 82//53 85//62 78//54
f 84//51 86//57 87//56
f 84//51 88//63 82//53
f 90//64 88//63 87//56
f 79//59 84//51 82//53
f 91//58 85//62 88//63
f 97//49 96//50 100//51
f 93//52 98//53 94//54
f 105//55 103//56 102//57
f 107//58 97//49 95//59
f 97//49 105//55 99//60
f 108//61 95//59 93//52
f 98//53 101//62 94//54
f 100//51 102//57 103//56
f 100//51 104//63 98//53
f 106//64 104//63 103//56
f 95//59 100//51 98//53
f 107//58 101//62 104//63
f 113//49 112//50 116//51
f 109//52 114//53 110//54
f 121//55 119//56 118//57
f 123//58 113//49 111//59
f 113//49 121//55 115//60
f 124//61 111//59 109//52
f 114//53 117//62 110//54
f 116//51 118//57 119//56
f 116//51 120//63 114//53
f 122//64 120//63 119//56
f 111//59 116//51 114//53
f 123//58 117//62 120//63
f 3//1 7//7 8//2
f 2//4 1//6 3//1
f 6//5 5//65 1//6
f 7//7 5//65 6//5
f 16//8 15//15 11//9
f 10//11 12//10 11//9
f 14//13 10//11 9//12
f 14//13 13//14 15//15
f 24//16 23//23 19//17
f 18//19 20//18 19//17
f 22//21 18//19 17//20
f 22//21 21//22 23//23
f 27//24 31//30 32//25
f 26//27 25//29 27//24
f 30//28 29//66 25//29
f 31//30 29//66 30//28
f 36//34 34//42 44//32
f 38//31 40//41 41//32
f 44//32 34//42 38//31
f 44//32 55//45 53//33
f 33//37 35//39 43//35
f 42//35 39//40 37//36
f 33//37 43//35 37//36
f 33//37 70//46 72//38
f 38//31 37//36 39//40
f 37//36 38//31 34//42
f 42//35 47//44 45//43
f 44//32 52//33 50//44
f 55//45 67//41 65//34
f 39//40 45//43 46//45
f 41//32 40//41 46//45
f 41//32 48//33 47//44
f 49//43 61//40 63//41
f 41//32 51//45 52//33
f 42//35 49//43 51//45
f 43//35 50//44 49//43
f 48//33 60//34 59//39
f 43//35 56//43 55//45
f 43//35 35//39 54//44
f 36//34 53//33 54//44
f 60//34 58//41 57//40
f 64//34 63//41 61//40
f 68//40 66//39 65//34
f 45//43 57//40 58//41
f 52//33 64//34 62//39
f 54//44 66//39 68//40
f 47//44 59//39 57//40
f 50//44 62//39 61//40
f 56//43 68//40 67//41
f 46//45 58//41 60//34
f 51//45 63//41 64//34
f 53//33 65//34 66//39
f 70//46 74//34 76//42
f 36//34 71//48 69//47
f 35//39 72//38 71//48
f 34//42 69//47 70//46
f 75//37 76//42 74//34
f 71//48 75//37 73//39
f 72//38 76//42 75//37
f 69//47 73//39 74//34
f 81//49 83//60 80//50
f 77//52 79//59 82//53
f 89//55 90//64 87//56
f 91//58 90//64 81//49
f 81//49 90//64 89//55
f 92//61 91//58 79//59
f 82//53 88//63 85//62
f 84//51 80//50 86//57
f 84//51 87//56 88//63
f 90//64 91//58 88//63
f 79//59 81//49 84//51
f 91//58 92//61 85//62
f 97//49 99//60 96//50
f 93//52 95//59 98//53
f 105//55 106//64 103//56
f 107//58 106//64 97//49
f 97//49 106//64 105//55
f 108//61 107//58 95//59
f 98//53 104//63 101//62
f 100//51 96//50 102//57
f 100//51 103//56 104//63
f 106//64 107//58 104//63
f 95//59 97//49 100//51
f 107//58 108//61 101//62
f 113//49 115//60 112//50
f 109//52 111//59 114//53
f 121//55 122//64 119//56
f 123//58 122//64 113//49
f 113//49 122//64 121//55
f 124//61 123//58 111//59
f 114//53 120//63 117//62
f 116//51 112//50 118//57
f 116//51 119//56 120//63
f 122//64 123//58 120//63
f 111//59 113//49 116//51
f 123//58 124//61 117//62
